<svg width="23" height="30" viewBox="0 0 23 30" fill="none" xmlns="http://www.w3.org/2000/svg">
<path d="M22.989 27.2183V13.9129C22.5975 9.54927 18.5703 8.78038 17.2478 8.5285C15.4631 8.18825 15.5759 6.80292 15.5936 6.64825V2.50552V2.47901C15.4609 0.837384 14.1671 0.143615 13.5015 0.00662837L9.56493 0L9.49858 0.00662837C8.83291 0.143615 7.53916 0.837384 7.40425 2.47901V6.60628V6.64825C7.42195 6.80513 7.53473 8.19046 5.75002 8.5285C4.42973 8.78038 0.402523 9.54706 0.0110805 13.9129V27.2183C-0.00440024 27.3884 -0.0840156 28.692 0.552907 29.4543C0.824927 29.7791 1.18098 29.9624 1.61666 30H21.3701H21.3834C21.8169 29.9624 22.1751 29.7791 22.4449 29.4543C23.0818 28.692 23.0022 27.3906 22.9868 27.2183H22.989ZM21.9363 29.0278C21.7837 29.2112 21.5868 29.3129 21.3392 29.3372H1.66089C1.4132 29.3129 1.21858 29.2112 1.06377 29.0278C0.65685 28.5418 0.643581 27.5873 0.672331 27.2603V13.9549C0.990792 10.5015 3.79281 9.57358 5.87608 9.17587C8.15839 8.74061 8.08762 6.8449 8.0655 6.5886V2.51878C8.18935 1.08484 9.39464 0.715864 9.60252 0.662837H13.3953C13.6076 0.718073 14.8085 1.08705 14.9323 2.51878V6.59081C14.9124 6.84932 14.8394 8.74282 17.1218 9.17808C19.205 9.57578 22.0093 10.5038 22.3255 13.9571V27.2625C22.3565 27.5873 22.3454 28.5396 21.9363 29.0278Z" fill="#919191"/>
<path d="M11.8317 11.1026V6.29919H11.1682V11.1026C7.11225 11.2727 3.85466 14.525 3.68437 18.5794H3.67995V18.7915C3.67995 18.8312 3.67773 18.871 3.67773 18.913C3.67773 18.955 3.67995 18.9925 3.67995 19.0345V19.2444H3.68437C3.85245 23.2965 7.11004 26.5511 11.1682 26.7212V26.73H11.4977C11.4977 26.73 11.4999 26.73 11.5022 26.73C11.5044 26.73 11.5044 26.73 11.5066 26.73H11.8339V26.7212C15.8898 26.5533 19.1474 23.2965 19.3177 19.2444H19.3288V18.5816H19.3177C19.1474 14.5294 15.8898 11.2749 11.8361 11.1048L11.8317 11.1026ZM11.5309 23.7053H11.469C8.85052 23.6876 6.72966 21.5776 6.70091 18.966V18.8533C6.73187 16.2395 8.85052 14.1273 11.469 14.1118H11.5309C14.1671 14.1295 16.3012 16.2683 16.3012 18.9108C16.3012 21.5533 14.1693 23.6898 11.5309 23.7075V23.7053Z" fill="#919191"/>
<path d="M11.5 17.2471C10.5026 17.2471 9.69092 18.0579 9.69092 19.0544C9.69092 20.0509 10.5026 20.8617 11.5 20.8617C12.4974 20.8617 13.309 20.0509 13.309 19.0544C13.309 18.0579 12.4974 17.2471 11.5 17.2471Z" fill="#919191"/>
<path d="M11.5 6.2992C12.2036 6.2992 12.7739 5.72942 12.7739 5.02655C12.7739 4.32369 12.2036 3.75391 11.5 3.75391C10.7965 3.75391 10.2262 4.32369 10.2262 5.02655C10.2262 5.72942 10.7965 6.2992 11.5 6.2992Z" fill="#919191"/>
</svg>
