<svg width="23" height="30" viewBox="0 0 23 30" fill="none" xmlns="http://www.w3.org/2000/svg">
<path d="M22.9893 27.2183V13.9129C22.5979 9.54927 18.5707 8.78038 17.2482 8.5285C15.4635 8.18825 15.5763 6.80292 15.5939 6.64825V2.50552V2.47901C15.4613 0.837384 14.1675 0.143615 13.5018 0.00662837L9.56529 0L9.49895 0.00662837C8.83327 0.143615 7.53952 0.837384 7.40462 2.47901V6.60628V6.64825C7.42231 6.80513 7.5351 8.19046 5.75039 8.5285C4.4301 8.78038 0.402889 9.54706 0.0114467 13.9129V27.2183C-0.00403403 27.3884 -0.0836494 28.692 0.553274 29.4543C0.825293 29.7791 1.18135 29.9624 1.61702 30H21.3705H21.3838C21.8172 29.9624 22.1755 29.7791 22.4453 29.4543C23.0822 28.692 23.0026 27.3906 22.9871 27.2183H22.9893ZM21.9366 29.0278C21.784 29.2112 21.5872 29.3129 21.3395 29.3372H1.66125C1.41356 29.3129 1.21895 29.2112 1.06414 29.0278C0.657216 28.5418 0.643947 27.5873 0.672697 27.2603V13.9549C0.991158 10.5015 3.79318 9.57358 5.87645 9.17587C8.15875 8.74061 8.08799 6.8449 8.06587 6.5886V2.51878C8.18972 1.08484 9.395 0.715864 9.60289 0.662837H13.3957C13.608 0.718073 14.8089 1.08705 14.9327 2.51878V6.59081C14.9128 6.84932 14.8398 8.74282 17.1221 9.17808C19.2054 9.57578 22.0096 10.5038 22.3259 13.9571V27.2625C22.3568 27.5873 22.3458 28.5396 21.9366 29.0278Z" fill="#919191"/>
<mask id="path-2-inside-1_1384_1021" fill="white">
<path d="M11.8322 11.1025V6.22266H11.1687V11.1025C7.11274 11.2726 3.85515 14.525 3.68486 18.5793H3.68043V18.7914C3.68043 18.8312 3.67822 18.871 3.67822 18.9129C3.67822 18.9549 3.68043 18.9925 3.68043 19.0345V19.2444H3.68486C3.85293 23.2965 7.11053 26.551 11.1687 26.7212V26.73H11.4982C11.4982 26.73 11.5004 26.73 11.5026 26.73C11.5049 26.73 11.5049 26.73 11.5071 26.73H11.8344V26.7212C15.8903 26.5532 19.1479 23.2965 19.3182 19.2444H19.3293V18.5815H19.3182C19.1479 14.5294 15.8903 11.2748 11.8366 11.1047L11.8322 11.1025ZM11.5314 23.7052H11.4695C8.85101 23.6876 6.73015 21.5775 6.7014 18.966V18.8533C6.73236 16.2395 8.85101 14.1273 11.4695 14.1118H11.5314C14.1675 14.1295 16.3017 16.2682 16.3017 18.9107C16.3017 21.5532 14.1698 23.6898 11.5314 23.7075V23.7052Z"/>
</mask>
<path d="M11.8322 11.1025H7.83217V13.5756L10.0445 14.6808L11.8322 11.1025ZM11.8322 6.22266H15.8322V2.22266H11.8322V6.22266ZM11.1687 6.22266V2.22266H7.1687V6.22266H11.1687ZM11.1687 11.1025L11.3363 15.099L15.1687 14.9382V11.1025H11.1687ZM3.68486 18.5793V22.5793H7.52038L7.68133 18.7472L3.68486 18.5793ZM3.68043 18.5793V14.5793H-0.319566V18.5793H3.68043ZM3.68043 19.2444H-0.319566V23.2444H3.68043V19.2444ZM3.68486 19.2444L7.68142 19.0786L7.52238 15.2444H3.68486V19.2444ZM11.1687 26.7212H15.1687V22.8853L11.3362 22.7247L11.1687 26.7212ZM11.1687 26.73H7.1687V30.73H11.1687V26.73ZM11.8344 26.73V30.73H15.8344V26.73H11.8344ZM11.8344 26.7212L11.6689 22.7246L7.83438 22.8833V26.7212H11.8344ZM19.3182 19.2444V15.2444H15.4828L15.3217 19.0764L19.3182 19.2444ZM19.3293 19.2444V23.2444H23.3293V19.2444H19.3293ZM19.3293 18.5815H23.3293V14.5815H19.3293V18.5815ZM19.3182 18.5815L15.3217 18.7495L15.4828 22.5815H19.3182V18.5815ZM11.8366 11.1047L10.049 14.683L10.8142 15.0653L11.6689 15.1012L11.8366 11.1047ZM11.5314 23.7052H15.5314V19.7052H11.5314V23.7052ZM11.4695 23.7052L11.4425 27.7052L11.456 27.7052H11.4695V23.7052ZM6.7014 18.966H2.7014V18.988L2.70164 19.01L6.7014 18.966ZM6.7014 18.8533L2.70168 18.8059L2.7014 18.8296V18.8533H6.7014ZM11.4695 14.1118V10.1118H11.4577L11.4458 10.1119L11.4695 14.1118ZM11.5314 14.1118L11.5582 10.1119L11.5448 10.1118H11.5314V14.1118ZM11.5314 23.7075H7.5314V27.7343L11.5582 27.7074L11.5314 23.7075ZM11.8322 11.1025H15.8322V6.22266H11.8322H7.83217V11.1025H11.8322ZM11.8322 6.22266V2.22266H11.1687V6.22266V10.2227H11.8322V6.22266ZM11.1687 6.22266H7.1687V11.1025H11.1687H15.1687V6.22266H11.1687ZM11.1687 11.1025L11.0011 7.10602C4.8717 7.36312 -0.0539126 12.2758 -0.311619 18.4114L3.68486 18.5793L7.68133 18.7472C7.7642 16.7741 9.35379 15.1821 11.3363 15.099L11.1687 11.1025ZM3.68486 18.5793V14.5793H3.68043V18.5793V22.5793H3.68486V18.5793ZM3.68043 18.5793H-0.319566V18.7914H3.68043H7.68043V18.5793H3.68043ZM3.68043 18.7914H-0.319566C-0.319566 18.765 -0.319204 18.7457 -0.319048 18.7382C-0.318928 18.7324 -0.318809 18.7286 -0.319168 18.7417C-0.319403 18.7502 -0.320073 18.7742 -0.320614 18.801C-0.321186 18.8292 -0.321777 18.8678 -0.321777 18.9129H3.67822H7.67822C7.67822 18.9371 7.67791 18.9549 7.67775 18.9627C7.67762 18.9689 7.67751 18.9726 7.67783 18.961C7.67802 18.954 7.67869 18.9301 7.67923 18.9044C7.6798 18.8769 7.68043 18.8377 7.68043 18.7914H3.68043ZM3.67822 18.9129H-0.321777C-0.321777 18.9583 -0.321179 18.9971 -0.320586 19.026C-0.320033 19.0529 -0.31934 19.0772 -0.319126 19.0849C-0.318787 19.0971 -0.318927 19.0927 -0.319066 19.0859C-0.319244 19.0772 -0.319566 19.0589 -0.319566 19.0345H3.68043H7.68043C7.68043 18.9891 7.67984 18.9502 7.67924 18.9214C7.67869 18.8945 7.678 18.8702 7.67778 18.8625C7.67744 18.8503 7.67758 18.8547 7.67772 18.8615C7.6779 18.8701 7.67822 18.8885 7.67822 18.9129H3.67822ZM3.68043 19.0345H-0.319566V19.2444H3.68043H7.68043V19.0345H3.68043ZM3.68043 19.2444V23.2444H3.68486V19.2444V15.2444H3.68043V19.2444ZM3.68486 19.2444L-0.311706 19.4101C-0.0572188 25.5455 4.8698 30.4606 11.0012 30.7176L11.1687 26.7212L11.3362 22.7247C9.35126 22.6415 7.76309 21.0475 7.68142 19.0786L3.68486 19.2444ZM11.1687 26.7212H7.1687V26.73H11.1687H15.1687V26.7212H11.1687ZM11.1687 26.73V30.73H11.4982V26.73V22.73H11.1687V26.73ZM11.4982 26.73C11.4982 30.73 11.4982 30.73 11.4982 30.73C11.4982 30.73 11.4982 30.73 11.4982 30.73C11.4982 30.73 11.4982 30.73 11.4982 30.73C11.4982 30.73 11.4982 30.73 11.4982 30.73C11.4982 30.73 11.4982 30.73 11.4982 30.73C11.4982 30.73 11.4982 30.73 11.4982 30.73C11.4982 30.73 11.4982 30.73 11.4982 30.73C11.4982 30.73 11.4982 30.73 11.4982 30.73C11.4982 30.73 11.4982 30.73 11.4982 30.73C11.4982 30.73 11.4982 30.73 11.4982 30.73C11.4982 30.73 11.4982 30.73 11.4982 30.73C11.4982 30.73 11.4982 30.73 11.4982 30.73C11.4982 30.73 11.4982 30.73 11.4982 30.73C11.4982 30.73 11.4982 30.73 11.4982 30.73C11.4982 30.73 11.4982 30.73 11.4982 30.73C11.4982 30.73 11.4982 30.73 11.4982 30.73C11.4982 30.73 11.4982 30.73 11.4982 30.73C11.4982 30.73 11.4982 30.73 11.4982 30.73C11.4982 30.73 11.4982 30.73 11.4982 30.73C11.4982 30.73 11.4982 30.73 11.4982 30.73C11.4982 30.73 11.4982 30.73 11.4982 30.73C11.4982 30.73 11.4982 30.73 11.4982 30.73C11.4982 30.73 11.4982 30.73 11.4982 30.73C11.4982 30.73 11.4982 30.73 11.4982 30.73C11.4982 30.73 11.4982 30.73 11.4982 30.73C11.4982 30.73 11.4982 30.73 11.4982 30.73C11.4982 30.73 11.4982 30.73 11.4982 30.73C11.4982 30.73 11.4982 30.73 11.4982 30.73C11.4982 30.73 11.4982 30.73 11.4982 30.73C11.4982 30.73 11.4982 30.73 11.4982 30.73C11.4982 30.73 11.4982 30.73 11.4982 30.73C11.4982 30.73 11.4982 30.73 11.4982 30.73C11.4982 30.73 11.4982 30.73 11.4982 30.73C11.4983 30.73 11.4983 30.73 11.4983 30.73C11.4983 30.73 11.4983 30.73 11.4983 30.73C11.4983 30.73 11.4983 30.73 11.4983 30.73C11.4983 30.73 11.4983 30.73 11.4983 30.73C11.4983 30.73 11.4983 30.73 11.4983 30.73C11.4983 30.73 11.4983 30.73 11.4983 30.73C11.4983 30.73 11.4983 30.73 11.4983 30.73C11.4983 30.73 11.4983 30.73 11.4983 30.73C11.4983 30.73 11.4983 30.73 11.4983 30.73C11.4983 30.73 11.4983 30.73 11.4983 30.73C11.4983 30.73 11.4983 30.73 11.4983 30.73C11.4983 30.73 11.4983 30.73 11.4983 30.73C11.4983 30.73 11.4983 30.73 11.4983 30.73C11.4983 30.73 11.4983 30.73 11.4983 30.73C11.4983 30.73 11.4983 30.73 11.4983 30.73C11.4983 30.73 11.4983 30.73 11.4983 30.73C11.4983 30.73 11.4983 30.73 11.4983 30.73C11.4983 30.73 11.4983 30.73 11.4983 30.73C11.4983 30.73 11.4983 30.73 11.4983 30.73C11.4983 30.73 11.4983 30.73 11.4983 30.73C11.4983 30.73 11.4983 30.73 11.4983 30.73C11.4983 30.73 11.4983 30.73 11.4983 30.73C11.4983 30.73 11.4983 30.73 11.4983 30.73C11.4983 30.73 11.4983 30.73 11.4983 30.73C11.4983 30.73 11.4983 30.73 11.4983 30.73C11.4983 30.73 11.4983 30.73 11.4983 30.73C11.4983 30.73 11.4983 30.73 11.4983 30.73C11.4983 30.73 11.4983 30.73 11.4983 30.73C11.4983 30.73 11.4983 30.73 11.4983 30.73C11.4983 30.73 11.4983 30.73 11.4983 30.73C11.4983 30.73 11.4983 30.73 11.4983 30.73C11.4983 30.73 11.4983 30.73 11.4983 30.73C11.4983 30.73 11.4983 30.73 11.4983 30.73C11.4983 30.73 11.4983 30.73 11.4983 30.73C11.4983 30.73 11.4983 30.73 11.4983 30.73C11.4983 30.73 11.4983 30.73 11.4983 30.73C11.4983 30.73 11.4983 30.73 11.4983 30.73C11.4983 30.73 11.4983 30.73 11.4983 30.73C11.4983 30.73 11.4983 30.73 11.4983 30.73C11.4983 30.73 11.4983 30.73 11.4984 30.73C11.4984 30.73 11.4984 30.73 11.4984 30.73C11.4984 30.73 11.4984 30.73 11.4984 30.73C11.4984 30.73 11.4984 30.73 11.4984 30.73C11.4984 30.73 11.4984 30.73 11.4984 30.73C11.4984 30.73 11.4984 30.73 11.4984 30.73C11.4984 30.73 11.4984 30.73 11.4984 30.73C11.4984 30.73 11.4984 30.73 11.4984 30.73C11.4984 30.73 11.4984 30.73 11.4984 30.73C11.4984 30.73 11.4984 30.73 11.4984 30.73C11.4984 30.73 11.4984 30.73 11.4984 30.73C11.4984 30.73 11.4984 30.73 11.4984 30.73C11.4984 30.73 11.4984 30.73 11.4984 30.73C11.4984 30.73 11.4984 30.73 11.4984 30.73C11.4984 30.73 11.4984 30.73 11.4984 30.73C11.4984 30.73 11.4984 30.73 11.4984 30.73C11.4984 30.73 11.4984 30.73 11.4984 30.73C11.4984 30.73 11.4984 30.73 11.4984 30.73C11.4984 30.73 11.4984 30.73 11.4984 30.73C11.4984 30.73 11.4984 30.73 11.4984 30.73C11.4984 30.73 11.4984 30.73 11.4984 30.73C11.4984 30.73 11.4984 30.73 11.4984 30.73C11.4984 30.73 11.4984 30.73 11.4984 30.73C11.4984 30.73 11.4984 30.73 11.4984 30.73C11.4984 30.73 11.4984 30.73 11.4984 30.73C11.4984 30.73 11.4984 30.73 11.4984 30.73C11.4985 30.73 11.4985 30.73 11.4985 30.73C11.4985 30.73 11.4985 30.73 11.4985 30.73C11.4985 30.73 11.4985 30.73 11.4985 30.73C11.4985 30.73 11.4985 30.73 11.4985 30.73C11.4985 30.73 11.4985 30.73 11.4985 30.73C11.4985 30.73 11.4985 30.73 11.4985 30.73C11.4985 30.73 11.4985 30.73 11.4985 30.73C11.4985 30.73 11.4985 30.73 11.4985 30.73C11.4985 30.73 11.4985 30.73 11.4985 30.73C11.4985 30.73 11.4985 30.73 11.4985 30.73C11.4985 30.73 11.4985 30.73 11.4985 30.73C11.4985 30.73 11.4985 30.73 11.4985 30.73C11.4985 30.73 11.4985 30.73 11.4985 30.73C11.4985 30.73 11.4985 30.73 11.4985 30.73C11.4985 30.73 11.4985 30.73 11.4985 30.73C11.4985 30.73 11.4985 30.73 11.4985 30.73C11.4985 30.73 11.4985 30.73 11.4985 30.73C11.4985 30.73 11.4985 30.73 11.4985 30.73C11.4985 30.73 11.4985 30.73 11.4985 30.73C11.4985 30.73 11.4985 30.73 11.4985 30.73C11.4985 30.73 11.4986 30.73 11.4986 30.73C11.4986 30.73 11.4986 30.73 11.4986 30.73C11.4986 30.73 11.4986 30.73 11.4986 30.73C11.4986 30.73 11.4986 30.73 11.4986 30.73C11.4986 30.73 11.4986 30.73 11.4986 30.73C11.4986 30.73 11.4986 30.73 11.4986 30.73C11.4986 30.73 11.4986 30.73 11.4986 30.73C11.4986 30.73 11.4986 30.73 11.4986 30.73C11.4986 30.73 11.4986 30.73 11.4986 30.73C11.4986 30.73 11.4986 30.73 11.4986 30.73C11.4986 30.73 11.4986 30.73 11.4986 30.73C11.4986 30.73 11.4986 30.73 11.4986 30.73C11.4986 30.73 11.4986 30.73 11.4986 30.73C11.4986 30.73 11.4986 30.73 11.4986 30.73C11.4986 30.73 11.4986 30.73 11.4986 30.73C11.4986 30.73 11.4986 30.73 11.4986 30.73C11.4986 30.73 11.4986 30.73 11.4986 30.73C11.4986 30.73 11.4986 30.73 11.4986 30.73C11.4987 30.73 11.4987 30.73 11.4987 30.73C11.4987 30.73 11.4987 30.73 11.4987 30.73C11.4987 30.73 11.4987 30.73 11.4987 30.73C11.4987 30.73 11.4987 30.73 11.4987 30.73C11.4987 30.73 11.4987 30.73 11.4987 30.73C11.4987 30.73 11.4987 30.73 11.4987 30.73C11.4987 30.73 11.4987 30.73 11.4987 30.73C11.4987 30.73 11.4987 30.73 11.4987 30.73C11.4987 30.73 11.4987 30.73 11.4987 30.73C11.4987 30.73 11.4987 30.73 11.4987 30.73C11.4987 30.73 11.4987 30.73 11.4987 30.73C11.4987 30.73 11.4987 30.73 11.4987 30.73C11.4987 30.73 11.4987 30.73 11.4987 30.73C11.4987 30.73 11.4987 30.73 11.4987 30.73C11.4987 30.73 11.4987 30.73 11.4987 30.73C11.4987 30.73 11.4987 30.73 11.4987 30.73C11.4988 30.73 11.4988 30.73 11.4988 30.73C11.4988 30.73 11.4988 30.73 11.4988 30.73C11.4988 30.73 11.4988 30.73 11.4988 30.73C11.4988 30.73 11.4988 30.73 11.4988 30.73C11.4988 30.73 11.4988 30.73 11.4988 30.73C11.4988 30.73 11.4988 30.73 11.4988 30.73C11.4988 30.73 11.4988 30.73 11.4988 30.73C11.4988 30.73 11.4988 30.73 11.4988 30.73C11.4988 30.73 11.4988 30.73 11.4988 30.73C11.4988 30.73 11.4988 30.73 11.4988 30.73C11.4988 30.73 11.4988 30.73 11.4988 30.73C11.4988 30.73 11.4988 30.73 11.4988 30.73C11.4988 30.73 11.4988 30.73 11.4988 30.73C11.4988 30.73 11.4988 30.73 11.4988 30.73C11.4988 30.73 11.4988 30.73 11.4989 30.73C11.4989 30.73 11.4989 30.73 11.4989 30.73C11.4989 30.73 11.4989 30.73 11.4989 30.73C11.4989 30.73 11.4989 30.73 11.4989 30.73C11.4989 30.73 11.4989 30.73 11.4989 30.73C11.4989 30.73 11.4989 30.73 11.4989 30.73C11.4989 30.73 11.4989 30.73 11.4989 30.73C11.4989 30.73 11.4989 30.73 11.4989 30.73C11.4989 30.73 11.4989 30.73 11.4989 30.73C11.4989 30.73 11.4989 30.73 11.4989 30.73C11.4989 30.73 11.4989 30.73 11.4989 30.73C11.4989 30.73 11.4989 30.73 11.4989 30.73C11.4989 30.73 11.4989 30.73 11.4989 30.73C11.4989 30.73 11.4989 30.73 11.4989 30.73C11.4989 30.73 11.499 30.73 11.499 30.73C11.499 30.73 11.499 30.73 11.499 30.73C11.499 30.73 11.499 30.73 11.499 30.73C11.499 30.73 11.499 30.73 11.499 30.73C11.499 30.73 11.499 30.73 11.499 30.73C11.499 30.73 11.499 30.73 11.499 30.73C11.499 30.73 11.499 30.73 11.499 30.73C11.499 30.73 11.499 30.73 11.499 30.73C11.499 30.73 11.499 30.73 11.499 30.73C11.499 30.73 11.499 30.73 11.499 30.73C11.499 30.73 11.499 30.73 11.499 30.73C11.499 30.73 11.499 30.73 11.499 30.73C11.499 30.73 11.499 30.73 11.499 30.73C11.499 30.73 11.4991 30.73 11.4991 30.73C11.4991 30.73 11.4991 30.73 11.4991 30.73C11.4991 30.73 11.4991 30.73 11.4991 30.73C11.4991 30.73 11.4991 30.73 11.4991 30.73C11.4991 30.73 11.4991 30.73 11.4991 30.73C11.4991 30.73 11.4991 30.73 11.4991 30.73C11.4991 30.73 11.4991 30.73 11.4991 30.73C11.4991 30.73 11.4991 30.73 11.4991 30.73C11.4991 30.73 11.4991 30.73 11.4991 30.73C11.4991 30.73 11.4991 30.73 11.4991 30.73C11.4991 30.73 11.4991 30.73 11.4991 30.73C11.4991 30.73 11.4991 30.73 11.4991 30.73C11.4991 30.73 11.4991 30.73 11.4992 30.73C11.4992 30.73 11.4992 30.73 11.4992 30.73C11.4992 30.73 11.4992 30.73 11.4992 30.73C11.4992 30.73 11.4992 30.73 11.4992 30.73C11.4992 30.73 11.4992 30.73 11.4992 30.73C11.4992 30.73 11.4992 30.73 11.4992 30.73C11.4992 30.73 11.4992 30.73 11.4992 30.73C11.4992 30.73 11.4992 30.73 11.4992 30.73C11.4992 30.73 11.4992 30.73 11.4992 30.73C11.4992 30.73 11.4992 30.73 11.4992 30.73C11.4992 30.73 11.4992 30.73 11.4992 30.73C11.4992 30.73 11.4992 30.73 11.4992 30.73C11.4992 30.73 11.4993 30.73 11.4993 30.73C11.4993 30.73 11.4993 30.73 11.4993 30.73C11.4993 30.73 11.4993 30.73 11.4993 30.73C11.4993 30.73 11.4993 30.73 11.4993 30.73C11.4993 30.73 11.4993 30.73 11.4993 30.73C11.4993 30.73 11.4993 30.73 11.4993 30.73C11.4993 30.73 11.4993 30.73 11.4993 30.73C11.4993 30.73 11.4993 30.73 11.4993 30.73C11.4993 30.73 11.4993 30.73 11.4993 30.73C11.4993 30.73 11.4993 30.73 11.4993 30.73C11.4993 30.73 11.4993 30.73 11.4993 30.73C11.4993 30.73 11.4993 30.73 11.4994 30.73C11.4994 30.73 11.4994 30.73 11.4994 30.73C11.4994 30.73 11.4994 30.73 11.4994 30.73C11.4994 30.73 11.4994 30.73 11.4994 30.73C11.4994 30.73 11.4994 30.73 11.4994 30.73C11.4994 30.73 11.4994 30.73 11.4994 30.73C11.4994 30.73 11.4994 30.73 11.4994 30.73C11.4994 30.73 11.4994 30.73 11.4994 30.73C11.4994 30.73 11.4994 30.73 11.4994 30.73C11.4994 30.73 11.4994 30.73 11.4994 30.73C11.4994 30.73 11.4994 30.73 11.4994 30.73C11.4994 30.73 11.4994 30.73 11.4995 30.73C11.4995 30.73 11.4995 30.73 11.4995 30.73C11.4995 30.73 11.4995 30.73 11.4995 30.73C11.4995 30.73 11.4995 30.73 11.4995 30.73C11.4995 30.73 11.4995 30.73 11.4995 30.73C11.4995 30.73 11.4995 30.73 11.4995 30.73C11.4995 30.73 11.4995 30.73 11.4995 30.73C11.4995 30.73 11.4995 30.73 11.4995 30.73C11.4995 30.73 11.4995 30.73 11.4995 30.73C11.4995 30.73 11.4995 30.73 11.4995 30.73C11.4995 30.73 11.4995 30.73 11.4995 30.73C11.4995 30.73 11.4996 30.73 11.4996 30.73C11.4996 30.73 11.4996 30.73 11.4996 30.73C11.4996 30.73 11.4996 30.73 11.4996 30.73C11.4996 30.73 11.4996 30.73 11.4996 30.73C11.4996 30.73 11.4996 30.73 11.4996 30.73C11.4996 30.73 11.4996 30.73 11.4996 30.73C11.4996 30.73 11.4996 30.73 11.4996 30.73C11.4996 30.73 11.4996 30.73 11.4996 30.73C11.4996 30.73 11.4996 30.73 11.4996 30.73C11.4996 30.73 11.4996 30.73 11.4996 30.73C11.4996 30.73 11.4997 30.73 11.4997 30.73C11.4997 30.73 11.4997 30.73 11.4997 30.73C11.4997 30.73 11.4997 30.73 11.4997 30.73C11.4997 30.73 11.4997 30.73 11.4997 30.73C11.4997 30.73 11.4997 30.73 11.4997 30.73C11.4997 30.73 11.4997 30.73 11.4997 30.73C11.4997 30.73 11.4997 30.73 11.4997 30.73C11.4997 30.73 11.4997 30.73 11.4997 30.73C11.4997 30.73 11.4997 30.73 11.4997 30.73C11.4997 30.73 11.4997 30.73 11.4997 30.73C11.4997 30.73 11.4997 30.73 11.4998 30.73C11.4998 30.73 11.4998 30.73 11.4998 30.73C11.4998 30.73 11.4998 30.73 11.4998 30.73C11.4998 30.73 11.4998 30.73 11.4998 30.73C11.4998 30.73 11.4998 30.73 11.4998 30.73C11.4998 30.73 11.4998 30.73 11.4998 30.73C11.4998 30.73 11.4998 30.73 11.4998 30.73C11.4998 30.73 11.4998 30.73 11.4998 30.73C11.4998 30.73 11.4998 30.73 11.4998 30.73C11.4998 30.73 11.4998 30.73 11.4998 30.73C11.4998 30.73 11.4999 30.73 11.4999 30.73C11.4999 30.73 11.4999 30.73 11.4999 30.73C11.4999 30.73 11.4999 30.73 11.4999 30.73C11.4999 30.73 11.4999 30.73 11.4999 30.73C11.4999 30.73 11.4999 30.73 11.4999 30.73C11.4999 30.73 11.4999 30.73 11.4999 30.73C11.4999 30.73 11.4999 30.73 11.4999 30.73C11.4999 30.73 11.4999 30.73 11.4999 30.73C11.4999 30.73 11.4999 30.73 11.4999 30.73C11.4999 30.73 11.4999 30.73 11.4999 30.73C11.5 30.73 11.5 30.73 11.5 30.73C11.5 30.73 11.5 30.73 11.5 30.73C11.5 30.73 11.5 30.73 11.5 30.73C11.5 30.73 11.5 30.73 11.5 30.73C11.5 30.73 11.5 30.73 11.5 30.73C11.5 30.73 11.5 30.73 11.5 30.73C11.5 30.73 11.5 30.73 11.5 30.73C11.5 30.73 11.5 30.73 11.5 30.73C11.5 30.73 11.5 30.73 11.5 30.73C11.5 30.73 11.5001 30.73 11.5001 30.73C11.5001 30.73 11.5001 30.73 11.5001 30.73C11.5001 30.73 11.5001 30.73 11.5001 30.73C11.5001 30.73 11.5001 30.73 11.5001 30.73C11.5001 30.73 11.5001 30.73 11.5001 30.73C11.5001 30.73 11.5001 30.73 11.5001 30.73C11.5001 30.73 11.5001 30.73 11.5001 30.73C11.5001 30.73 11.5001 30.73 11.5001 30.73C11.5001 30.73 11.5001 30.73 11.5001 30.73C11.5001 30.73 11.5001 30.73 11.5002 30.73C11.5002 30.73 11.5002 30.73 11.5002 30.73C11.5002 30.73 11.5002 30.73 11.5002 30.73C11.5002 30.73 11.5002 30.73 11.5002 30.73C11.5002 30.73 11.5002 30.73 11.5002 30.73C11.5002 30.73 11.5002 30.73 11.5002 30.73C11.5002 30.73 11.5002 30.73 11.5002 30.73C11.5002 30.73 11.5002 30.73 11.5002 30.73C11.5002 30.73 11.5002 30.73 11.5002 30.73C11.5002 30.73 11.5002 30.73 11.5003 30.73C11.5003 30.73 11.5003 30.73 11.5003 30.73C11.5003 30.73 11.5003 30.73 11.5003 30.73C11.5003 30.73 11.5003 30.73 11.5003 30.73C11.5003 30.73 11.5003 30.73 11.5003 30.73C11.5003 30.73 11.5003 30.73 11.5003 30.73C11.5003 30.73 11.5003 30.73 11.5003 30.73C11.5003 30.73 11.5003 30.73 11.5003 30.73C11.5003 30.73 11.5003 30.73 11.5003 30.73C11.5003 30.73 11.5003 30.73 11.5004 30.73C11.5004 30.73 11.5004 30.73 11.5004 30.73C11.5004 30.73 11.5004 30.73 11.5004 30.73C11.5004 30.73 11.5004 30.73 11.5004 30.73C11.5004 30.73 11.5004 30.73 11.5004 30.73C11.5004 30.73 11.5004 30.73 11.5004 30.73C11.5004 30.73 11.5004 30.73 11.5004 30.73C11.5004 30.73 11.5004 30.73 11.5004 30.73C11.5004 30.73 11.5004 30.73 11.5004 30.73C11.5004 30.73 11.5005 30.73 11.5005 30.73C11.5005 30.73 11.5005 30.73 11.5005 30.73C11.5005 30.73 11.5005 30.73 11.5005 30.73C11.5005 30.73 11.5005 30.73 11.5005 30.73C11.5005 30.73 11.5005 30.73 11.5005 30.73C11.5005 30.73 11.5005 30.73 11.5005 30.73C11.5005 30.73 11.5005 30.73 11.5005 30.73C11.5005 30.73 11.5005 30.73 11.5005 30.73C11.5005 30.73 11.5005 30.73 11.5005 30.73C11.5006 30.73 11.5006 30.73 11.5006 30.73C11.5006 30.73 11.5006 30.73 11.5006 30.73C11.5006 30.73 11.5006 30.73 11.5006 30.73C11.5006 30.73 11.5006 30.73 11.5006 30.73C11.5006 30.73 11.5006 30.73 11.5006 30.73C11.5006 30.73 11.5006 30.73 11.5006 30.73C11.5006 30.73 11.5006 30.73 11.5006 30.73C11.5006 30.73 11.5006 30.73 11.5006 30.73C11.5006 30.73 11.5006 30.73 11.5007 30.73C11.5007 30.73 11.5007 30.73 11.5007 30.73C11.5007 30.73 11.5007 30.73 11.5007 30.73C11.5007 30.73 11.5007 30.73 11.5007 30.73C11.5007 30.73 11.5007 30.73 11.5007 30.73C11.5007 30.73 11.5007 30.73 11.5007 30.73C11.5007 30.73 11.5007 30.73 11.5007 30.73C11.5007 30.73 11.5007 30.73 11.5007 30.73C11.5007 30.73 11.5007 30.73 11.5007 30.73C11.5007 30.73 11.5008 30.73 11.5008 30.73C11.5008 30.73 11.5008 30.73 11.5008 30.73C11.5008 30.73 11.5008 30.73 11.5008 30.73C11.5008 30.73 11.5008 30.73 11.5008 30.73C11.5008 30.73 11.5008 30.73 11.5008 30.73C11.5008 30.73 11.5008 30.73 11.5008 30.73C11.5008 30.73 11.5008 30.73 11.5008 30.73C11.5008 30.73 11.5008 30.73 11.5008 30.73C11.5008 30.73 11.5008 30.73 11.5009 30.73C11.5009 30.73 11.5009 30.73 11.5009 30.73C11.5009 30.73 11.5009 30.73 11.5009 30.73C11.5009 30.73 11.5009 30.73 11.5009 30.73C11.5009 30.73 11.5009 30.73 11.5009 30.73C11.5009 30.73 11.5009 30.73 11.5009 30.73C11.5009 30.73 11.5009 30.73 11.5009 30.73C11.5009 30.73 11.5009 30.73 11.5009 30.73C11.5009 30.73 11.5009 30.73 11.5009 30.73C11.501 30.73 11.501 30.73 11.501 30.73C11.501 30.73 11.501 30.73 11.501 30.73C11.501 30.73 11.501 30.73 11.501 30.73C11.501 30.73 11.501 30.73 11.501 30.73C11.501 30.73 11.501 30.73 11.501 30.73C11.501 30.73 11.501 30.73 11.501 30.73C11.501 30.73 11.501 30.73 11.501 30.73C11.501 30.73 11.501 30.73 11.501 30.73C11.501 30.73 11.5011 30.73 11.5011 30.73C11.5011 30.73 11.5011 30.73 11.5011 30.73C11.5011 30.73 11.5011 30.73 11.5011 30.73C11.5011 30.73 11.5011 30.73 11.5011 30.73C11.5011 30.73 11.5011 30.73 11.5011 30.73C11.5011 30.73 11.5011 30.73 11.5011 30.73C11.5011 30.73 11.5011 30.73 11.5011 30.73C11.5011 30.73 11.5011 30.73 11.5011 30.73C11.5011 30.73 11.5012 30.73 11.5012 30.73C11.5012 30.73 11.5012 30.73 11.5012 30.73C11.5012 30.73 11.5012 30.73 11.5012 30.73C11.5012 30.73 11.5012 30.73 11.5012 30.73C11.5012 30.73 11.5012 30.73 11.5012 30.73C11.5012 30.73 11.5012 30.73 11.5012 30.73C11.5012 30.73 11.5012 30.73 11.5012 30.73C11.5012 30.73 11.5012 30.73 11.5012 30.73C11.5012 30.73 11.5012 30.73 11.5013 30.73C11.5013 30.73 11.5013 30.73 11.5013 30.73C11.5013 30.73 11.5013 30.73 11.5013 30.73C11.5013 30.73 11.5013 30.73 11.5013 30.73C11.5013 30.73 11.5013 30.73 11.5013 30.73C11.5013 30.73 11.5013 30.73 11.5013 30.73C11.5013 30.73 11.5013 30.73 11.5013 30.73C11.5013 30.73 11.5013 30.73 11.5013 30.73C11.5013 30.73 11.5013 30.73 11.5014 30.73C11.5014 30.73 11.5014 30.73 11.5014 30.73C11.5014 30.73 11.5014 30.73 11.5014 30.73C11.5014 30.73 11.5014 30.73 11.5014 30.73C11.5014 30.73 11.5014 30.73 11.5014 30.73C11.5014 30.73 11.5014 30.73 11.5014 30.73C11.5014 30.73 11.5014 30.73 11.5014 30.73C11.5014 30.73 11.5014 30.73 11.5014 30.73C11.5014 30.73 11.5014 30.73 11.5015 30.73C11.5015 30.73 11.5015 30.73 11.5015 30.73C11.5015 30.73 11.5015 30.73 11.5015 30.73C11.5015 30.73 11.5015 30.73 11.5015 30.73C11.5015 30.73 11.5015 30.73 11.5015 30.73C11.5015 30.73 11.5015 30.73 11.5015 30.73C11.5015 30.73 11.5015 30.73 11.5015 30.73C11.5015 30.73 11.5015 30.73 11.5015 30.73C11.5015 30.73 11.5015 30.73 11.5016 30.73C11.5016 30.73 11.5016 30.73 11.5016 30.73C11.5016 30.73 11.5016 30.73 11.5016 30.73C11.5016 30.73 11.5016 30.73 11.5016 30.73C11.5016 30.73 11.5016 30.73 11.5016 30.73C11.5016 30.73 11.5016 30.73 11.5016 30.73C11.5016 30.73 11.5016 30.73 11.5016 30.73C11.5016 30.73 11.5016 30.73 11.5016 30.73C11.5016 30.73 11.5017 30.73 11.5017 30.73C11.5017 30.73 11.5017 30.73 11.5017 30.73C11.5017 30.73 11.5017 30.73 11.5017 30.73C11.5017 30.73 11.5017 30.73 11.5017 30.73C11.5017 30.73 11.5017 30.73 11.5017 30.73C11.5017 30.73 11.5017 30.73 11.5017 30.73C11.5017 30.73 11.5017 30.73 11.5017 30.73C11.5017 30.73 11.5017 30.73 11.5017 30.73C11.5017 30.73 11.5018 30.73 11.5018 30.73C11.5018 30.73 11.5018 30.73 11.5018 30.73C11.5018 30.73 11.5018 30.73 11.5018 30.73C11.5018 30.73 11.5018 30.73 11.5018 30.73C11.5018 30.73 11.5018 30.73 11.5018 30.73C11.5018 30.73 11.5018 30.73 11.5018 30.73C11.5018 30.73 11.5018 30.73 11.5018 30.73C11.5018 30.73 11.5018 30.73 11.5018 30.73C11.5018 30.73 11.5019 30.73 11.5019 30.73C11.5019 30.73 11.5019 30.73 11.5019 30.73C11.5019 30.73 11.5019 30.73 11.5019 30.73C11.5019 30.73 11.5019 30.73 11.5019 30.73C11.5019 30.73 11.5019 30.73 11.5019 30.73C11.5019 30.73 11.5019 30.73 11.5019 30.73C11.5019 30.73 11.5019 30.73 11.5019 30.73C11.5019 30.73 11.5019 30.73 11.5019 30.73C11.502 30.73 11.502 30.73 11.502 30.73C11.502 30.73 11.502 30.73 11.502 30.73C11.502 30.73 11.502 30.73 11.502 30.73C11.502 30.73 11.502 30.73 11.502 30.73C11.502 30.73 11.502 30.73 11.502 30.73C11.502 30.73 11.502 30.73 11.502 30.73C11.502 30.73 11.502 30.73 11.502 30.73C11.502 30.73 11.502 30.73 11.5021 30.73C11.5021 30.73 11.5021 30.73 11.5021 30.73C11.5021 30.73 11.5021 30.73 11.5021 30.73C11.5021 30.73 11.5021 30.73 11.5021 30.73C11.5021 30.73 11.5021 30.73 11.5021 30.73C11.5021 30.73 11.5021 30.73 11.5021 30.73C11.5021 30.73 11.5021 30.73 11.5021 30.73C11.5021 30.73 11.5021 30.73 11.5021 30.73C11.5021 30.73 11.5021 30.73 11.5022 30.73C11.5022 30.73 11.5022 30.73 11.5022 30.73C11.5022 30.73 11.5022 30.73 11.5022 30.73C11.5022 30.73 11.5022 30.73 11.5022 30.73C11.5022 30.73 11.5022 30.73 11.5022 30.73C11.5022 30.73 11.5022 30.73 11.5022 30.73C11.5022 30.73 11.5022 30.73 11.5022 30.73C11.5022 30.73 11.5022 30.73 11.5022 30.73C11.5022 30.73 11.5023 30.73 11.5023 30.73C11.5023 30.73 11.5023 30.73 11.5023 30.73C11.5023 30.73 11.5023 30.73 11.5023 30.73C11.5023 30.73 11.5023 30.73 11.5023 30.73C11.5023 30.73 11.5023 30.73 11.5023 30.73C11.5023 30.73 11.5023 30.73 11.5023 30.73C11.5023 30.73 11.5023 30.73 11.5023 30.73C11.5023 30.73 11.5023 30.73 11.5023 30.73C11.5024 30.73 11.5024 30.73 11.5024 30.73C11.5024 30.73 11.5024 30.73 11.5024 30.73C11.5024 30.73 11.5024 30.73 11.5024 30.73C11.5024 30.73 11.5024 30.73 11.5024 30.73C11.5024 30.73 11.5024 30.73 11.5024 30.73C11.5024 30.73 11.5024 30.73 11.5024 30.73C11.5024 30.73 11.5024 30.73 11.5024 30.73C11.5024 30.73 11.5024 30.73 11.5025 30.73C11.5025 30.73 11.5025 30.73 11.5025 30.73C11.5025 30.73 11.5025 30.73 11.5025 30.73C11.5025 30.73 11.5025 30.73 11.5025 30.73C11.5025 30.73 11.5025 30.73 11.5025 30.73C11.5025 30.73 11.5025 30.73 11.5025 30.73C11.5025 30.73 11.5025 30.73 11.5025 30.73C11.5025 30.73 11.5025 30.73 11.5025 30.73C11.5025 30.73 11.5026 30.73 11.5026 30.73C11.5026 30.73 11.5026 30.73 11.5026 30.73C11.5026 30.73 11.5026 30.73 11.5026 30.73C11.5026 30.73 11.5026 30.73 11.5026 30.73C11.5026 30.73 11.5026 30.73 11.5026 30.73C11.5026 30.73 11.5026 30.73 11.5026 30.73C11.5026 30.73 11.5026 30.73 11.5026 30.73C11.5026 30.73 11.5026 30.73 11.5026 30.73V26.73V22.73C11.5026 22.73 11.5026 22.73 11.5026 22.73C11.5026 22.73 11.5026 22.73 11.5026 22.73C11.5026 22.73 11.5026 22.73 11.5026 22.73C11.5026 22.73 11.5026 22.73 11.5026 22.73C11.5026 22.73 11.5026 22.73 11.5026 22.73C11.5026 22.73 11.5026 22.73 11.5026 22.73C11.5026 22.73 11.5026 22.73 11.5026 22.73C11.5026 22.73 11.5025 22.73 11.5025 22.73C11.5025 22.73 11.5025 22.73 11.5025 22.73C11.5025 22.73 11.5025 22.73 11.5025 22.73C11.5025 22.73 11.5025 22.73 11.5025 22.73C11.5025 22.73 11.5025 22.73 11.5025 22.73C11.5025 22.73 11.5025 22.73 11.5025 22.73C11.5025 22.73 11.5025 22.73 11.5025 22.73C11.5025 22.73 11.5025 22.73 11.5025 22.73C11.5024 22.73 11.5024 22.73 11.5024 22.73C11.5024 22.73 11.5024 22.73 11.5024 22.73C11.5024 22.73 11.5024 22.73 11.5024 22.73C11.5024 22.73 11.5024 22.73 11.5024 22.73C11.5024 22.73 11.5024 22.73 11.5024 22.73C11.5024 22.73 11.5024 22.73 11.5024 22.73C11.5024 22.73 11.5024 22.73 11.5024 22.73C11.5024 22.73 11.5024 22.73 11.5023 22.73C11.5023 22.73 11.5023 22.73 11.5023 22.73C11.5023 22.73 11.5023 22.73 11.5023 22.73C11.5023 22.73 11.5023 22.73 11.5023 22.73C11.5023 22.73 11.5023 22.73 11.5023 22.73C11.5023 22.73 11.5023 22.73 11.5023 22.73C11.5023 22.73 11.5023 22.73 11.5023 22.73C11.5023 22.73 11.5023 22.73 11.5023 22.73C11.5023 22.73 11.5022 22.73 11.5022 22.73C11.5022 22.73 11.5022 22.73 11.5022 22.73C11.5022 22.73 11.5022 22.73 11.5022 22.73C11.5022 22.73 11.5022 22.73 11.5022 22.73C11.5022 22.73 11.5022 22.73 11.5022 22.73C11.5022 22.73 11.5022 22.73 11.5022 22.73C11.5022 22.73 11.5022 22.73 11.5022 22.73C11.5022 22.73 11.5022 22.73 11.5022 22.73C11.5021 22.73 11.5021 22.73 11.5021 22.73C11.5021 22.73 11.5021 22.73 11.5021 22.73C11.5021 22.73 11.5021 22.73 11.5021 22.73C11.5021 22.73 11.5021 22.73 11.5021 22.73C11.5021 22.73 11.5021 22.73 11.5021 22.73C11.5021 22.73 11.5021 22.73 11.5021 22.73C11.5021 22.73 11.5021 22.73 11.5021 22.73C11.5021 22.73 11.5021 22.73 11.5021 22.73C11.502 22.73 11.502 22.73 11.502 22.73C11.502 22.73 11.502 22.73 11.502 22.73C11.502 22.73 11.502 22.73 11.502 22.73C11.502 22.73 11.502 22.73 11.502 22.73C11.502 22.73 11.502 22.73 11.502 22.73C11.502 22.73 11.502 22.73 11.502 22.73C11.502 22.73 11.502 22.73 11.502 22.73C11.502 22.73 11.502 22.73 11.5019 22.73C11.5019 22.73 11.5019 22.73 11.5019 22.73C11.5019 22.73 11.5019 22.73 11.5019 22.73C11.5019 22.73 11.5019 22.73 11.5019 22.73C11.5019 22.73 11.5019 22.73 11.5019 22.73C11.5019 22.73 11.5019 22.73 11.5019 22.73C11.5019 22.73 11.5019 22.73 11.5019 22.73C11.5019 22.73 11.5019 22.73 11.5019 22.73C11.5019 22.73 11.5018 22.73 11.5018 22.73C11.5018 22.73 11.5018 22.73 11.5018 22.73C11.5018 22.73 11.5018 22.73 11.5018 22.73C11.5018 22.73 11.5018 22.73 11.5018 22.73C11.5018 22.73 11.5018 22.73 11.5018 22.73C11.5018 22.73 11.5018 22.73 11.5018 22.73C11.5018 22.73 11.5018 22.73 11.5018 22.73C11.5018 22.73 11.5018 22.73 11.5018 22.73C11.5018 22.73 11.5017 22.73 11.5017 22.73C11.5017 22.73 11.5017 22.73 11.5017 22.73C11.5017 22.73 11.5017 22.73 11.5017 22.73C11.5017 22.73 11.5017 22.73 11.5017 22.73C11.5017 22.73 11.5017 22.73 11.5017 22.73C11.5017 22.73 11.5017 22.73 11.5017 22.73C11.5017 22.73 11.5017 22.73 11.5017 22.73C11.5017 22.73 11.5017 22.73 11.5017 22.73C11.5017 22.73 11.5016 22.73 11.5016 22.73C11.5016 22.73 11.5016 22.73 11.5016 22.73C11.5016 22.73 11.5016 22.73 11.5016 22.73C11.5016 22.73 11.5016 22.73 11.5016 22.73C11.5016 22.73 11.5016 22.73 11.5016 22.73C11.5016 22.73 11.5016 22.73 11.5016 22.73C11.5016 22.73 11.5016 22.73 11.5016 22.73C11.5016 22.73 11.5016 22.73 11.5016 22.73C11.5015 22.73 11.5015 22.73 11.5015 22.73C11.5015 22.73 11.5015 22.73 11.5015 22.73C11.5015 22.73 11.5015 22.73 11.5015 22.73C11.5015 22.73 11.5015 22.73 11.5015 22.73C11.5015 22.73 11.5015 22.73 11.5015 22.73C11.5015 22.73 11.5015 22.73 11.5015 22.73C11.5015 22.73 11.5015 22.73 11.5015 22.73C11.5015 22.73 11.5015 22.73 11.5015 22.73C11.5014 22.73 11.5014 22.73 11.5014 22.73C11.5014 22.73 11.5014 22.73 11.5014 22.73C11.5014 22.73 11.5014 22.73 11.5014 22.73C11.5014 22.73 11.5014 22.73 11.5014 22.73C11.5014 22.73 11.5014 22.73 11.5014 22.73C11.5014 22.73 11.5014 22.73 11.5014 22.73C11.5014 22.73 11.5014 22.73 11.5014 22.73C11.5014 22.73 11.5014 22.73 11.5014 22.73C11.5013 22.73 11.5013 22.73 11.5013 22.73C11.5013 22.73 11.5013 22.73 11.5013 22.73C11.5013 22.73 11.5013 22.73 11.5013 22.73C11.5013 22.73 11.5013 22.73 11.5013 22.73C11.5013 22.73 11.5013 22.73 11.5013 22.73C11.5013 22.73 11.5013 22.73 11.5013 22.73C11.5013 22.73 11.5013 22.73 11.5013 22.73C11.5013 22.73 11.5013 22.73 11.5013 22.73C11.5012 22.73 11.5012 22.73 11.5012 22.73C11.5012 22.73 11.5012 22.73 11.5012 22.73C11.5012 22.73 11.5012 22.73 11.5012 22.73C11.5012 22.73 11.5012 22.73 11.5012 22.73C11.5012 22.73 11.5012 22.73 11.5012 22.73C11.5012 22.73 11.5012 22.73 11.5012 22.73C11.5012 22.73 11.5012 22.73 11.5012 22.73C11.5012 22.73 11.5012 22.73 11.5012 22.73C11.5012 22.73 11.5011 22.73 11.5011 22.73C11.5011 22.73 11.5011 22.73 11.5011 22.73C11.5011 22.73 11.5011 22.73 11.5011 22.73C11.5011 22.73 11.5011 22.73 11.5011 22.73C11.5011 22.73 11.5011 22.73 11.5011 22.73C11.5011 22.73 11.5011 22.73 11.5011 22.73C11.5011 22.73 11.5011 22.73 11.5011 22.73C11.5011 22.73 11.5011 22.73 11.5011 22.73C11.5011 22.73 11.501 22.73 11.501 22.73C11.501 22.73 11.501 22.73 11.501 22.73C11.501 22.73 11.501 22.73 11.501 22.73C11.501 22.73 11.501 22.73 11.501 22.73C11.501 22.73 11.501 22.73 11.501 22.73C11.501 22.73 11.501 22.73 11.501 22.73C11.501 22.73 11.501 22.73 11.501 22.73C11.501 22.73 11.501 22.73 11.501 22.73C11.501 22.73 11.501 22.73 11.5009 22.73C11.5009 22.73 11.5009 22.73 11.5009 22.73C11.5009 22.73 11.5009 22.73 11.5009 22.73C11.5009 22.73 11.5009 22.73 11.5009 22.73C11.5009 22.73 11.5009 22.73 11.5009 22.73C11.5009 22.73 11.5009 22.73 11.5009 22.73C11.5009 22.73 11.5009 22.73 11.5009 22.73C11.5009 22.73 11.5009 22.73 11.5009 22.73C11.5009 22.73 11.5009 22.73 11.5009 22.73C11.5008 22.73 11.5008 22.73 11.5008 22.73C11.5008 22.73 11.5008 22.73 11.5008 22.73C11.5008 22.73 11.5008 22.73 11.5008 22.73C11.5008 22.73 11.5008 22.73 11.5008 22.73C11.5008 22.73 11.5008 22.73 11.5008 22.73C11.5008 22.73 11.5008 22.73 11.5008 22.73C11.5008 22.73 11.5008 22.73 11.5008 22.73C11.5008 22.73 11.5008 22.73 11.5008 22.73C11.5008 22.73 11.5007 22.73 11.5007 22.73C11.5007 22.73 11.5007 22.73 11.5007 22.73C11.5007 22.73 11.5007 22.73 11.5007 22.73C11.5007 22.73 11.5007 22.73 11.5007 22.73C11.5007 22.73 11.5007 22.73 11.5007 22.73C11.5007 22.73 11.5007 22.73 11.5007 22.73C11.5007 22.73 11.5007 22.73 11.5007 22.73C11.5007 22.73 11.5007 22.73 11.5007 22.73C11.5007 22.73 11.5007 22.73 11.5007 22.73C11.5006 22.73 11.5006 22.73 11.5006 22.73C11.5006 22.73 11.5006 22.73 11.5006 22.73C11.5006 22.73 11.5006 22.73 11.5006 22.73C11.5006 22.73 11.5006 22.73 11.5006 22.73C11.5006 22.73 11.5006 22.73 11.5006 22.73C11.5006 22.73 11.5006 22.73 11.5006 22.73C11.5006 22.73 11.5006 22.73 11.5006 22.73C11.5006 22.73 11.5006 22.73 11.5006 22.73C11.5006 22.73 11.5006 22.73 11.5005 22.73C11.5005 22.73 11.5005 22.73 11.5005 22.73C11.5005 22.73 11.5005 22.73 11.5005 22.73C11.5005 22.73 11.5005 22.73 11.5005 22.73C11.5005 22.73 11.5005 22.73 11.5005 22.73C11.5005 22.73 11.5005 22.73 11.5005 22.73C11.5005 22.73 11.5005 22.73 11.5005 22.73C11.5005 22.73 11.5005 22.73 11.5005 22.73C11.5005 22.73 11.5005 22.73 11.5005 22.73C11.5005 22.73 11.5004 22.73 11.5004 22.73C11.5004 22.73 11.5004 22.73 11.5004 22.73C11.5004 22.73 11.5004 22.73 11.5004 22.73C11.5004 22.73 11.5004 22.73 11.5004 22.73C11.5004 22.73 11.5004 22.73 11.5004 22.73C11.5004 22.73 11.5004 22.73 11.5004 22.73C11.5004 22.73 11.5004 22.73 11.5004 22.73C11.5004 22.73 11.5004 22.73 11.5004 22.73C11.5004 22.73 11.5004 22.73 11.5004 22.73C11.5003 22.73 11.5003 22.73 11.5003 22.73C11.5003 22.73 11.5003 22.73 11.5003 22.73C11.5003 22.73 11.5003 22.73 11.5003 22.73C11.5003 22.73 11.5003 22.73 11.5003 22.73C11.5003 22.73 11.5003 22.73 11.5003 22.73C11.5003 22.73 11.5003 22.73 11.5003 22.73C11.5003 22.73 11.5003 22.73 11.5003 22.73C11.5003 22.73 11.5003 22.73 11.5003 22.73C11.5003 22.73 11.5003 22.73 11.5003 22.73C11.5002 22.73 11.5002 22.73 11.5002 22.73C11.5002 22.73 11.5002 22.73 11.5002 22.73C11.5002 22.73 11.5002 22.73 11.5002 22.73C11.5002 22.73 11.5002 22.73 11.5002 22.73C11.5002 22.73 11.5002 22.73 11.5002 22.73C11.5002 22.73 11.5002 22.73 11.5002 22.73C11.5002 22.73 11.5002 22.73 11.5002 22.73C11.5002 22.73 11.5002 22.73 11.5002 22.73C11.5002 22.73 11.5002 22.73 11.5002 22.73C11.5001 22.73 11.5001 22.73 11.5001 22.73C11.5001 22.73 11.5001 22.73 11.5001 22.73C11.5001 22.73 11.5001 22.73 11.5001 22.73C11.5001 22.73 11.5001 22.73 11.5001 22.73C11.5001 22.73 11.5001 22.73 11.5001 22.73C11.5001 22.73 11.5001 22.73 11.5001 22.73C11.5001 22.73 11.5001 22.73 11.5001 22.73C11.5001 22.73 11.5001 22.73 11.5001 22.73C11.5001 22.73 11.5001 22.73 11.5001 22.73C11.5001 22.73 11.5 22.73 11.5 22.73C11.5 22.73 11.5 22.73 11.5 22.73C11.5 22.73 11.5 22.73 11.5 22.73C11.5 22.73 11.5 22.73 11.5 22.73C11.5 22.73 11.5 22.73 11.5 22.73C11.5 22.73 11.5 22.73 11.5 22.73C11.5 22.73 11.5 22.73 11.5 22.73C11.5 22.73 11.5 22.73 11.5 22.73C11.5 22.73 11.5 22.73 11.5 22.73C11.5 22.73 11.5 22.73 11.4999 22.73C11.4999 22.73 11.4999 22.73 11.4999 22.73C11.4999 22.73 11.4999 22.73 11.4999 22.73C11.4999 22.73 11.4999 22.73 11.4999 22.73C11.4999 22.73 11.4999 22.73 11.4999 22.73C11.4999 22.73 11.4999 22.73 11.4999 22.73C11.4999 22.73 11.4999 22.73 11.4999 22.73C11.4999 22.73 11.4999 22.73 11.4999 22.73C11.4999 22.73 11.4999 22.73 11.4999 22.73C11.4999 22.73 11.4999 22.73 11.4999 22.73C11.4999 22.73 11.4998 22.73 11.4998 22.73C11.4998 22.73 11.4998 22.73 11.4998 22.73C11.4998 22.73 11.4998 22.73 11.4998 22.73C11.4998 22.73 11.4998 22.73 11.4998 22.73C11.4998 22.73 11.4998 22.73 11.4998 22.73C11.4998 22.73 11.4998 22.73 11.4998 22.73C11.4998 22.73 11.4998 22.73 11.4998 22.73C11.4998 22.73 11.4998 22.73 11.4998 22.73C11.4998 22.73 11.4998 22.73 11.4998 22.73C11.4998 22.73 11.4998 22.73 11.4998 22.73C11.4997 22.73 11.4997 22.73 11.4997 22.73C11.4997 22.73 11.4997 22.73 11.4997 22.73C11.4997 22.73 11.4997 22.73 11.4997 22.73C11.4997 22.73 11.4997 22.73 11.4997 22.73C11.4997 22.73 11.4997 22.73 11.4997 22.73C11.4997 22.73 11.4997 22.73 11.4997 22.73C11.4997 22.73 11.4997 22.73 11.4997 22.73C11.4997 22.73 11.4997 22.73 11.4997 22.73C11.4997 22.73 11.4997 22.73 11.4997 22.73C11.4997 22.73 11.4997 22.73 11.4997 22.73C11.4997 22.73 11.4996 22.73 11.4996 22.73C11.4996 22.73 11.4996 22.73 11.4996 22.73C11.4996 22.73 11.4996 22.73 11.4996 22.73C11.4996 22.73 11.4996 22.73 11.4996 22.73C11.4996 22.73 11.4996 22.73 11.4996 22.73C11.4996 22.73 11.4996 22.73 11.4996 22.73C11.4996 22.73 11.4996 22.73 11.4996 22.73C11.4996 22.73 11.4996 22.73 11.4996 22.73C11.4996 22.73 11.4996 22.73 11.4996 22.73C11.4996 22.73 11.4996 22.73 11.4996 22.73C11.4996 22.73 11.4995 22.73 11.4995 22.73C11.4995 22.73 11.4995 22.73 11.4995 22.73C11.4995 22.73 11.4995 22.73 11.4995 22.73C11.4995 22.73 11.4995 22.73 11.4995 22.73C11.4995 22.73 11.4995 22.73 11.4995 22.73C11.4995 22.73 11.4995 22.73 11.4995 22.73C11.4995 22.73 11.4995 22.73 11.4995 22.73C11.4995 22.73 11.4995 22.73 11.4995 22.73C11.4995 22.73 11.4995 22.73 11.4995 22.73C11.4995 22.73 11.4995 22.73 11.4995 22.73C11.4995 22.73 11.4995 22.73 11.4995 22.73C11.4994 22.73 11.4994 22.73 11.4994 22.73C11.4994 22.73 11.4994 22.73 11.4994 22.73C11.4994 22.73 11.4994 22.73 11.4994 22.73C11.4994 22.73 11.4994 22.73 11.4994 22.73C11.4994 22.73 11.4994 22.73 11.4994 22.73C11.4994 22.73 11.4994 22.73 11.4994 22.73C11.4994 22.73 11.4994 22.73 11.4994 22.73C11.4994 22.73 11.4994 22.73 11.4994 22.73C11.4994 22.73 11.4994 22.73 11.4994 22.73C11.4994 22.73 11.4994 22.73 11.4994 22.73C11.4994 22.73 11.4994 22.73 11.4994 22.73C11.4993 22.73 11.4993 22.73 11.4993 22.73C11.4993 22.73 11.4993 22.73 11.4993 22.73C11.4993 22.73 11.4993 22.73 11.4993 22.73C11.4993 22.73 11.4993 22.73 11.4993 22.73C11.4993 22.73 11.4993 22.73 11.4993 22.73C11.4993 22.73 11.4993 22.73 11.4993 22.73C11.4993 22.73 11.4993 22.73 11.4993 22.73C11.4993 22.73 11.4993 22.73 11.4993 22.73C11.4993 22.73 11.4993 22.73 11.4993 22.73C11.4993 22.73 11.4993 22.73 11.4993 22.73C11.4993 22.73 11.4993 22.73 11.4993 22.73C11.4993 22.73 11.4992 22.73 11.4992 22.73C11.4992 22.73 11.4992 22.73 11.4992 22.73C11.4992 22.73 11.4992 22.73 11.4992 22.73C11.4992 22.73 11.4992 22.73 11.4992 22.73C11.4992 22.73 11.4992 22.73 11.4992 22.73C11.4992 22.73 11.4992 22.73 11.4992 22.73C11.4992 22.73 11.4992 22.73 11.4992 22.73C11.4992 22.73 11.4992 22.73 11.4992 22.73C11.4992 22.73 11.4992 22.73 11.4992 22.73C11.4992 22.73 11.4992 22.73 11.4992 22.73C11.4992 22.73 11.4992 22.73 11.4992 22.73C11.4992 22.73 11.4992 22.73 11.4992 22.73C11.4991 22.73 11.4991 22.73 11.4991 22.73C11.4991 22.73 11.4991 22.73 11.4991 22.73C11.4991 22.73 11.4991 22.73 11.4991 22.73C11.4991 22.73 11.4991 22.73 11.4991 22.73C11.4991 22.73 11.4991 22.73 11.4991 22.73C11.4991 22.73 11.4991 22.73 11.4991 22.73C11.4991 22.73 11.4991 22.73 11.4991 22.73C11.4991 22.73 11.4991 22.73 11.4991 22.73C11.4991 22.73 11.4991 22.73 11.4991 22.73C11.4991 22.73 11.4991 22.73 11.4991 22.73C11.4991 22.73 11.4991 22.73 11.4991 22.73C11.4991 22.73 11.4991 22.73 11.4991 22.73C11.4991 22.73 11.499 22.73 11.499 22.73C11.499 22.73 11.499 22.73 11.499 22.73C11.499 22.73 11.499 22.73 11.499 22.73C11.499 22.73 11.499 22.73 11.499 22.73C11.499 22.73 11.499 22.73 11.499 22.73C11.499 22.73 11.499 22.73 11.499 22.73C11.499 22.73 11.499 22.73 11.499 22.73C11.499 22.73 11.499 22.73 11.499 22.73C11.499 22.73 11.499 22.73 11.499 22.73C11.499 22.73 11.499 22.73 11.499 22.73C11.499 22.73 11.499 22.73 11.499 22.73C11.499 22.73 11.499 22.73 11.499 22.73C11.499 22.73 11.499 22.73 11.499 22.73C11.499 22.73 11.4989 22.73 11.4989 22.73C11.4989 22.73 11.4989 22.73 11.4989 22.73C11.4989 22.73 11.4989 22.73 11.4989 22.73C11.4989 22.73 11.4989 22.73 11.4989 22.73C11.4989 22.73 11.4989 22.73 11.4989 22.73C11.4989 22.73 11.4989 22.73 11.4989 22.73C11.4989 22.73 11.4989 22.73 11.4989 22.73C11.4989 22.73 11.4989 22.73 11.4989 22.73C11.4989 22.73 11.4989 22.73 11.4989 22.73C11.4989 22.73 11.4989 22.73 11.4989 22.73C11.4989 22.73 11.4989 22.73 11.4989 22.73C11.4989 22.73 11.4989 22.73 11.4989 22.73C11.4989 22.73 11.4989 22.73 11.4989 22.73C11.4989 22.73 11.4989 22.73 11.4989 22.73C11.4988 22.73 11.4988 22.73 11.4988 22.73C11.4988 22.73 11.4988 22.73 11.4988 22.73C11.4988 22.73 11.4988 22.73 11.4988 22.73C11.4988 22.73 11.4988 22.73 11.4988 22.73C11.4988 22.73 11.4988 22.73 11.4988 22.73C11.4988 22.73 11.4988 22.73 11.4988 22.73C11.4988 22.73 11.4988 22.73 11.4988 22.73C11.4988 22.73 11.4988 22.73 11.4988 22.73C11.4988 22.73 11.4988 22.73 11.4988 22.73C11.4988 22.73 11.4988 22.73 11.4988 22.73C11.4988 22.73 11.4988 22.73 11.4988 22.73C11.4988 22.73 11.4988 22.73 11.4988 22.73C11.4988 22.73 11.4988 22.73 11.4988 22.73C11.4988 22.73 11.4988 22.73 11.4988 22.73C11.4988 22.73 11.4988 22.73 11.4987 22.73C11.4987 22.73 11.4987 22.73 11.4987 22.73C11.4987 22.73 11.4987 22.73 11.4987 22.73C11.4987 22.73 11.4987 22.73 11.4987 22.73C11.4987 22.73 11.4987 22.73 11.4987 22.73C11.4987 22.73 11.4987 22.73 11.4987 22.73C11.4987 22.73 11.4987 22.73 11.4987 22.73C11.4987 22.73 11.4987 22.73 11.4987 22.73C11.4987 22.73 11.4987 22.73 11.4987 22.73C11.4987 22.73 11.4987 22.73 11.4987 22.73C11.4987 22.73 11.4987 22.73 11.4987 22.73C11.4987 22.73 11.4987 22.73 11.4987 22.73C11.4987 22.73 11.4987 22.73 11.4987 22.73C11.4987 22.73 11.4987 22.73 11.4987 22.73C11.4987 22.73 11.4987 22.73 11.4987 22.73C11.4987 22.73 11.4987 22.73 11.4987 22.73C11.4987 22.73 11.4987 22.73 11.4986 22.73C11.4986 22.73 11.4986 22.73 11.4986 22.73C11.4986 22.73 11.4986 22.73 11.4986 22.73C11.4986 22.73 11.4986 22.73 11.4986 22.73C11.4986 22.73 11.4986 22.73 11.4986 22.73C11.4986 22.73 11.4986 22.73 11.4986 22.73C11.4986 22.73 11.4986 22.73 11.4986 22.73C11.4986 22.73 11.4986 22.73 11.4986 22.73C11.4986 22.73 11.4986 22.73 11.4986 22.73C11.4986 22.73 11.4986 22.73 11.4986 22.73C11.4986 22.73 11.4986 22.73 11.4986 22.73C11.4986 22.73 11.4986 22.73 11.4986 22.73C11.4986 22.73 11.4986 22.73 11.4986 22.73C11.4986 22.73 11.4986 22.73 11.4986 22.73C11.4986 22.73 11.4986 22.73 11.4986 22.73C11.4986 22.73 11.4986 22.73 11.4986 22.73C11.4986 22.73 11.4986 22.73 11.4986 22.73C11.4986 22.73 11.4986 22.73 11.4986 22.73C11.4986 22.73 11.4985 22.73 11.4985 22.73C11.4985 22.73 11.4985 22.73 11.4985 22.73C11.4985 22.73 11.4985 22.73 11.4985 22.73C11.4985 22.73 11.4985 22.73 11.4985 22.73C11.4985 22.73 11.4985 22.73 11.4985 22.73C11.4985 22.73 11.4985 22.73 11.4985 22.73C11.4985 22.73 11.4985 22.73 11.4985 22.73C11.4985 22.73 11.4985 22.73 11.4985 22.73C11.4985 22.73 11.4985 22.73 11.4985 22.73C11.4985 22.73 11.4985 22.73 11.4985 22.73C11.4985 22.73 11.4985 22.73 11.4985 22.73C11.4985 22.73 11.4985 22.73 11.4985 22.73C11.4985 22.73 11.4985 22.73 11.4985 22.73C11.4985 22.73 11.4985 22.73 11.4985 22.73C11.4985 22.73 11.4985 22.73 11.4985 22.73C11.4985 22.73 11.4985 22.73 11.4985 22.73C11.4985 22.73 11.4985 22.73 11.4985 22.73C11.4985 22.73 11.4985 22.73 11.4985 22.73C11.4985 22.73 11.4985 22.73 11.4985 22.73C11.4985 22.73 11.4985 22.73 11.4985 22.73C11.4985 22.73 11.4985 22.73 11.4984 22.73C11.4984 22.73 11.4984 22.73 11.4984 22.73C11.4984 22.73 11.4984 22.73 11.4984 22.73C11.4984 22.73 11.4984 22.73 11.4984 22.73C11.4984 22.73 11.4984 22.73 11.4984 22.73C11.4984 22.73 11.4984 22.73 11.4984 22.73C11.4984 22.73 11.4984 22.73 11.4984 22.73C11.4984 22.73 11.4984 22.73 11.4984 22.73C11.4984 22.73 11.4984 22.73 11.4984 22.73C11.4984 22.73 11.4984 22.73 11.4984 22.73C11.4984 22.73 11.4984 22.73 11.4984 22.73C11.4984 22.73 11.4984 22.73 11.4984 22.73C11.4984 22.73 11.4984 22.73 11.4984 22.73C11.4984 22.73 11.4984 22.73 11.4984 22.73C11.4984 22.73 11.4984 22.73 11.4984 22.73C11.4984 22.73 11.4984 22.73 11.4984 22.73C11.4984 22.73 11.4984 22.73 11.4984 22.73C11.4984 22.73 11.4984 22.73 11.4984 22.73C11.4984 22.73 11.4984 22.73 11.4984 22.73C11.4984 22.73 11.4984 22.73 11.4984 22.73C11.4984 22.73 11.4984 22.73 11.4984 22.73C11.4984 22.73 11.4984 22.73 11.4984 22.73C11.4984 22.73 11.4984 22.73 11.4984 22.73C11.4984 22.73 11.4984 22.73 11.4984 22.73C11.4984 22.73 11.4984 22.73 11.4984 22.73C11.4984 22.73 11.4984 22.73 11.4984 22.73C11.4983 22.73 11.4983 22.73 11.4983 22.73C11.4983 22.73 11.4983 22.73 11.4983 22.73C11.4983 22.73 11.4983 22.73 11.4983 22.73C11.4983 22.73 11.4983 22.73 11.4983 22.73C11.4983 22.73 11.4983 22.73 11.4983 22.73C11.4983 22.73 11.4983 22.73 11.4983 22.73C11.4983 22.73 11.4983 22.73 11.4983 22.73C11.4983 22.73 11.4983 22.73 11.4983 22.73C11.4983 22.73 11.4983 22.73 11.4983 22.73C11.4983 22.73 11.4983 22.73 11.4983 22.73C11.4983 22.73 11.4983 22.73 11.4983 22.73C11.4983 22.73 11.4983 22.73 11.4983 22.73C11.4983 22.73 11.4983 22.73 11.4983 22.73C11.4983 22.73 11.4983 22.73 11.4983 22.73C11.4983 22.73 11.4983 22.73 11.4983 22.73C11.4983 22.73 11.4983 22.73 11.4983 22.73C11.4983 22.73 11.4983 22.73 11.4983 22.73C11.4983 22.73 11.4983 22.73 11.4983 22.73C11.4983 22.73 11.4983 22.73 11.4983 22.73C11.4983 22.73 11.4983 22.73 11.4983 22.73C11.4983 22.73 11.4983 22.73 11.4983 22.73C11.4983 22.73 11.4983 22.73 11.4983 22.73C11.4983 22.73 11.4983 22.73 11.4983 22.73C11.4983 22.73 11.4983 22.73 11.4983 22.73C11.4983 22.73 11.4983 22.73 11.4983 22.73C11.4983 22.73 11.4983 22.73 11.4983 22.73C11.4983 22.73 11.4983 22.73 11.4983 22.73C11.4983 22.73 11.4983 22.73 11.4983 22.73C11.4983 22.73 11.4983 22.73 11.4983 22.73C11.4983 22.73 11.4983 22.73 11.4983 22.73C11.4983 22.73 11.4983 22.73 11.4983 22.73C11.4983 22.73 11.4983 22.73 11.4983 22.73C11.4983 22.73 11.4983 22.73 11.4983 22.73C11.4983 22.73 11.4983 22.73 11.4983 22.73C11.4983 22.73 11.4983 22.73 11.4983 22.73C11.4983 22.73 11.4983 22.73 11.4983 22.73C11.4983 22.73 11.4983 22.73 11.4983 22.73C11.4983 22.73 11.4983 22.73 11.4983 22.73C11.4983 22.73 11.4983 22.73 11.4983 22.73C11.4983 22.73 11.4983 22.73 11.4982 22.73C11.4982 22.73 11.4982 22.73 11.4982 22.73C11.4982 22.73 11.4982 22.73 11.4982 22.73C11.4982 22.73 11.4982 22.73 11.4982 22.73C11.4982 22.73 11.4982 22.73 11.4982 22.73C11.4982 22.73 11.4982 22.73 11.4982 22.73C11.4982 22.73 11.4982 22.73 11.4982 22.73C11.4982 22.73 11.4982 22.73 11.4982 22.73C11.4982 22.73 11.4982 22.73 11.4982 22.73C11.4982 22.73 11.4982 22.73 11.4982 22.73C11.4982 22.73 11.4982 22.73 11.4982 22.73C11.4982 22.73 11.4982 22.73 11.4982 22.73C11.4982 22.73 11.4982 22.73 11.4982 22.73C11.4982 22.73 11.4982 22.73 11.4982 22.73C11.4982 22.73 11.4982 22.73 11.4982 22.73C11.4982 22.73 11.4982 22.73 11.4982 22.73C11.4982 22.73 11.4982 22.73 11.4982 22.73C11.4982 22.73 11.4982 22.73 11.4982 22.73C11.4982 22.73 11.4982 22.73 11.4982 22.73C11.4982 22.73 11.4982 22.73 11.4982 22.73C11.4982 22.73 11.4982 22.73 11.4982 22.73C11.4982 22.73 11.4982 22.73 11.4982 22.73C11.4982 22.73 11.4982 22.73 11.4982 22.73C11.4982 22.73 11.4982 22.73 11.4982 22.73C11.4982 22.73 11.4982 22.73 11.4982 22.73C11.4982 22.73 11.4982 22.73 11.4982 22.73C11.4982 22.73 11.4982 22.73 11.4982 22.73C11.4982 22.73 11.4982 22.73 11.4982 22.73C11.4982 22.73 11.4982 22.73 11.4982 22.73C11.4982 22.73 11.4982 22.73 11.4982 22.73C11.4982 22.73 11.4982 22.73 11.4982 22.73C11.4982 22.73 11.4982 22.73 11.4982 22.73C11.4982 22.73 11.4982 22.73 11.4982 22.73C11.4982 22.73 11.4982 22.73 11.4982 26.73ZM11.5026 26.73V30.73C11.5026 30.73 11.5027 30.73 11.5027 30.73C11.5027 30.73 11.5027 30.73 11.5027 30.73C11.5027 30.73 11.5027 30.73 11.5027 30.73C11.5027 30.73 11.5027 30.73 11.5027 30.73C11.5027 30.73 11.5027 30.73 11.5027 30.73C11.5027 30.73 11.5027 30.73 11.5027 30.73C11.5027 30.73 11.5027 30.73 11.5027 30.73C11.5027 30.73 11.5027 30.73 11.5027 30.73C11.5028 30.73 11.5028 30.73 11.5028 30.73C11.5028 30.73 11.5028 30.73 11.5028 30.73C11.5028 30.73 11.5028 30.73 11.5028 30.73C11.5028 30.73 11.5028 30.73 11.5028 30.73C11.5028 30.73 11.5028 30.73 11.5028 30.73C11.5028 30.73 11.5028 30.73 11.5028 30.73C11.5028 30.73 11.5028 30.73 11.5028 30.73C11.5028 30.73 11.5028 30.73 11.5028 30.73C11.5029 30.73 11.5029 30.73 11.5029 30.73C11.5029 30.73 11.5029 30.73 11.5029 30.73C11.5029 30.73 11.5029 30.73 11.5029 30.73C11.5029 30.73 11.5029 30.73 11.5029 30.73C11.5029 30.73 11.5029 30.73 11.5029 30.73C11.5029 30.73 11.5029 30.73 11.5029 30.73C11.5029 30.73 11.5029 30.73 11.5029 30.73C11.5029 30.73 11.5029 30.73 11.5029 30.73C11.5029 30.73 11.5029 30.73 11.503 30.73C11.503 30.73 11.503 30.73 11.503 30.73C11.503 30.73 11.503 30.73 11.503 30.73C11.503 30.73 11.503 30.73 11.503 30.73C11.503 30.73 11.503 30.73 11.503 30.73C11.503 30.73 11.503 30.73 11.503 30.73C11.503 30.73 11.503 30.73 11.503 30.73C11.503 30.73 11.503 30.73 11.503 30.73C11.503 30.73 11.503 30.73 11.503 30.73C11.503 30.73 11.5031 30.73 11.5031 30.73C11.5031 30.73 11.5031 30.73 11.5031 30.73C11.5031 30.73 11.5031 30.73 11.5031 30.73C11.5031 30.73 11.5031 30.73 11.5031 30.73C11.5031 30.73 11.5031 30.73 11.5031 30.73C11.5031 30.73 11.5031 30.73 11.5031 30.73C11.5031 30.73 11.5031 30.73 11.5031 30.73C11.5031 30.73 11.5031 30.73 11.5031 30.73C11.5031 30.73 11.5031 30.73 11.5031 30.73C11.5032 30.73 11.5032 30.73 11.5032 30.73C11.5032 30.73 11.5032 30.73 11.5032 30.73C11.5032 30.73 11.5032 30.73 11.5032 30.73C11.5032 30.73 11.5032 30.73 11.5032 30.73C11.5032 30.73 11.5032 30.73 11.5032 30.73C11.5032 30.73 11.5032 30.73 11.5032 30.73C11.5032 30.73 11.5032 30.73 11.5032 30.73C11.5032 30.73 11.5032 30.73 11.5032 30.73C11.5032 30.73 11.5032 30.73 11.5032 30.73C11.5032 30.73 11.5033 30.73 11.5033 30.73C11.5033 30.73 11.5033 30.73 11.5033 30.73C11.5033 30.73 11.5033 30.73 11.5033 30.73C11.5033 30.73 11.5033 30.73 11.5033 30.73C11.5033 30.73 11.5033 30.73 11.5033 30.73C11.5033 30.73 11.5033 30.73 11.5033 30.73C11.5033 30.73 11.5033 30.73 11.5033 30.73C11.5033 30.73 11.5033 30.73 11.5033 30.73C11.5033 30.73 11.5033 30.73 11.5033 30.73C11.5033 30.73 11.5033 30.73 11.5033 30.73C11.5034 30.73 11.5034 30.73 11.5034 30.73C11.5034 30.73 11.5034 30.73 11.5034 30.73C11.5034 30.73 11.5034 30.73 11.5034 30.73C11.5034 30.73 11.5034 30.73 11.5034 30.73C11.5034 30.73 11.5034 30.73 11.5034 30.73C11.5034 30.73 11.5034 30.73 11.5034 30.73C11.5034 30.73 11.5034 30.73 11.5034 30.73C11.5034 30.73 11.5034 30.73 11.5034 30.73C11.5034 30.73 11.5034 30.73 11.5034 30.73C11.5034 30.73 11.5034 30.73 11.5034 30.73C11.5035 30.73 11.5035 30.73 11.5035 30.73C11.5035 30.73 11.5035 30.73 11.5035 30.73C11.5035 30.73 11.5035 30.73 11.5035 30.73C11.5035 30.73 11.5035 30.73 11.5035 30.73C11.5035 30.73 11.5035 30.73 11.5035 30.73C11.5035 30.73 11.5035 30.73 11.5035 30.73C11.5035 30.73 11.5035 30.73 11.5035 30.73C11.5035 30.73 11.5035 30.73 11.5035 30.73C11.5035 30.73 11.5035 30.73 11.5035 30.73C11.5035 30.73 11.5035 30.73 11.5035 30.73C11.5035 30.73 11.5036 30.73 11.5036 30.73C11.5036 30.73 11.5036 30.73 11.5036 30.73C11.5036 30.73 11.5036 30.73 11.5036 30.73C11.5036 30.73 11.5036 30.73 11.5036 30.73C11.5036 30.73 11.5036 30.73 11.5036 30.73C11.5036 30.73 11.5036 30.73 11.5036 30.73C11.5036 30.73 11.5036 30.73 11.5036 30.73C11.5036 30.73 11.5036 30.73 11.5036 30.73C11.5036 30.73 11.5036 30.73 11.5036 30.73C11.5036 30.73 11.5036 30.73 11.5036 30.73C11.5036 30.73 11.5036 30.73 11.5036 30.73C11.5037 30.73 11.5037 30.73 11.5037 30.73C11.5037 30.73 11.5037 30.73 11.5037 30.73C11.5037 30.73 11.5037 30.73 11.5037 30.73C11.5037 30.73 11.5037 30.73 11.5037 30.73C11.5037 30.73 11.5037 30.73 11.5037 30.73C11.5037 30.73 11.5037 30.73 11.5037 30.73C11.5037 30.73 11.5037 30.73 11.5037 30.73C11.5037 30.73 11.5037 30.73 11.5037 30.73C11.5037 30.73 11.5037 30.73 11.5037 30.73C11.5037 30.73 11.5037 30.73 11.5037 30.73C11.5037 30.73 11.5037 30.73 11.5037 30.73C11.5038 30.73 11.5038 30.73 11.5038 30.73C11.5038 30.73 11.5038 30.73 11.5038 30.73C11.5038 30.73 11.5038 30.73 11.5038 30.73C11.5038 30.73 11.5038 30.73 11.5038 30.73C11.5038 30.73 11.5038 30.73 11.5038 30.73C11.5038 30.73 11.5038 30.73 11.5038 30.73C11.5038 30.73 11.5038 30.73 11.5038 30.73C11.5038 30.73 11.5038 30.73 11.5038 30.73C11.5038 30.73 11.5038 30.73 11.5038 30.73C11.5038 30.73 11.5038 30.73 11.5038 30.73C11.5038 30.73 11.5038 30.73 11.5038 30.73C11.5038 30.73 11.5038 30.73 11.5039 30.73C11.5039 30.73 11.5039 30.73 11.5039 30.73C11.5039 30.73 11.5039 30.73 11.5039 30.73C11.5039 30.73 11.5039 30.73 11.5039 30.73C11.5039 30.73 11.5039 30.73 11.5039 30.73C11.5039 30.73 11.5039 30.73 11.5039 30.73C11.5039 30.73 11.5039 30.73 11.5039 30.73C11.5039 30.73 11.5039 30.73 11.5039 30.73C11.5039 30.73 11.5039 30.73 11.5039 30.73C11.5039 30.73 11.5039 30.73 11.5039 30.73C11.5039 30.73 11.5039 30.73 11.5039 30.73C11.5039 30.73 11.5039 30.73 11.5039 30.73C11.5039 30.73 11.5039 30.73 11.504 30.73C11.504 30.73 11.504 30.73 11.504 30.73C11.504 30.73 11.504 30.73 11.504 30.73C11.504 30.73 11.504 30.73 11.504 30.73C11.504 30.73 11.504 30.73 11.504 30.73C11.504 30.73 11.504 30.73 11.504 30.73C11.504 30.73 11.504 30.73 11.504 30.73C11.504 30.73 11.504 30.73 11.504 30.73C11.504 30.73 11.504 30.73 11.504 30.73C11.504 30.73 11.504 30.73 11.504 30.73C11.504 30.73 11.504 30.73 11.504 30.73C11.504 30.73 11.504 30.73 11.504 30.73C11.504 30.73 11.504 30.73 11.504 30.73C11.504 30.73 11.5041 30.73 11.5041 30.73C11.5041 30.73 11.5041 30.73 11.5041 30.73C11.5041 30.73 11.5041 30.73 11.5041 30.73C11.5041 30.73 11.5041 30.73 11.5041 30.73C11.5041 30.73 11.5041 30.73 11.5041 30.73C11.5041 30.73 11.5041 30.73 11.5041 30.73C11.5041 30.73 11.5041 30.73 11.5041 30.73C11.5041 30.73 11.5041 30.73 11.5041 30.73C11.5041 30.73 11.5041 30.73 11.5041 30.73C11.5041 30.73 11.5041 30.73 11.5041 30.73C11.5041 30.73 11.5041 30.73 11.5041 30.73C11.5041 30.73 11.5041 30.73 11.5041 30.73C11.5041 30.73 11.5041 30.73 11.5041 30.73C11.5041 30.73 11.5042 30.73 11.5042 30.73C11.5042 30.73 11.5042 30.73 11.5042 30.73C11.5042 30.73 11.5042 30.73 11.5042 30.73C11.5042 30.73 11.5042 30.73 11.5042 30.73C11.5042 30.73 11.5042 30.73 11.5042 30.73C11.5042 30.73 11.5042 30.73 11.5042 30.73C11.5042 30.73 11.5042 30.73 11.5042 30.73C11.5042 30.73 11.5042 30.73 11.5042 30.73C11.5042 30.73 11.5042 30.73 11.5042 30.73C11.5042 30.73 11.5042 30.73 11.5042 30.73C11.5042 30.73 11.5042 30.73 11.5042 30.73C11.5042 30.73 11.5042 30.73 11.5042 30.73C11.5042 30.73 11.5042 30.73 11.5042 30.73C11.5042 30.73 11.5042 30.73 11.5042 30.73C11.5043 30.73 11.5043 30.73 11.5043 30.73C11.5043 30.73 11.5043 30.73 11.5043 30.73C11.5043 30.73 11.5043 30.73 11.5043 30.73C11.5043 30.73 11.5043 30.73 11.5043 30.73C11.5043 30.73 11.5043 30.73 11.5043 30.73C11.5043 30.73 11.5043 30.73 11.5043 30.73C11.5043 30.73 11.5043 30.73 11.5043 30.73C11.5043 30.73 11.5043 30.73 11.5043 30.73C11.5043 30.73 11.5043 30.73 11.5043 30.73C11.5043 30.73 11.5043 30.73 11.5043 30.73C11.5043 30.73 11.5043 30.73 11.5043 30.73C11.5043 30.73 11.5043 30.73 11.5043 30.73C11.5043 30.73 11.5043 30.73 11.5043 30.73C11.5043 30.73 11.5043 30.73 11.5044 30.73C11.5044 30.73 11.5044 30.73 11.5044 30.73C11.5044 30.73 11.5044 30.73 11.5044 30.73C11.5044 30.73 11.5044 30.73 11.5044 30.73C11.5044 30.73 11.5044 30.73 11.5044 30.73C11.5044 30.73 11.5044 30.73 11.5044 30.73C11.5044 30.73 11.5044 30.73 11.5044 30.73C11.5044 30.73 11.5044 30.73 11.5044 30.73C11.5044 30.73 11.5044 30.73 11.5044 30.73C11.5044 30.73 11.5044 30.73 11.5044 30.73C11.5044 30.73 11.5044 30.73 11.5044 30.73C11.5044 30.73 11.5044 30.73 11.5044 30.73C11.5044 30.73 11.5044 30.73 11.5044 30.73C11.5044 30.73 11.5044 30.73 11.5044 30.73C11.5044 30.73 11.5044 30.73 11.5044 30.73C11.5044 30.73 11.5045 30.73 11.5045 30.73C11.5045 30.73 11.5045 30.73 11.5045 30.73C11.5045 30.73 11.5045 30.73 11.5045 30.73C11.5045 30.73 11.5045 30.73 11.5045 30.73C11.5045 30.73 11.5045 30.73 11.5045 30.73C11.5045 30.73 11.5045 30.73 11.5045 30.73C11.5045 30.73 11.5045 30.73 11.5045 30.73C11.5045 30.73 11.5045 30.73 11.5045 30.73C11.5045 30.73 11.5045 30.73 11.5045 30.73C11.5045 30.73 11.5045 30.73 11.5045 30.73C11.5045 30.73 11.5045 30.73 11.5045 30.73C11.5045 30.73 11.5045 30.73 11.5045 30.73C11.5045 30.73 11.5045 30.73 11.5045 30.73C11.5045 30.73 11.5045 30.73 11.5045 30.73C11.5045 30.73 11.5045 30.73 11.5045 30.73C11.5046 30.73 11.5046 30.73 11.5046 30.73C11.5046 30.73 11.5046 30.73 11.5046 30.73C11.5046 30.73 11.5046 30.73 11.5046 30.73C11.5046 30.73 11.5046 30.73 11.5046 30.73C11.5046 30.73 11.5046 30.73 11.5046 30.73C11.5046 30.73 11.5046 30.73 11.5046 30.73C11.5046 30.73 11.5046 30.73 11.5046 30.73C11.5046 30.73 11.5046 30.73 11.5046 30.73C11.5046 30.73 11.5046 30.73 11.5046 30.73C11.5046 30.73 11.5046 30.73 11.5046 30.73C11.5046 30.73 11.5046 30.73 11.5046 30.73C11.5046 30.73 11.5046 30.73 11.5046 30.73C11.5046 30.73 11.5046 30.73 11.5046 30.73C11.5046 30.73 11.5046 30.73 11.5046 30.73C11.5046 30.73 11.5046 30.73 11.5046 30.73C11.5047 30.73 11.5047 30.73 11.5047 30.73C11.5047 30.73 11.5047 30.73 11.5047 30.73C11.5047 30.73 11.5047 30.73 11.5047 30.73C11.5047 30.73 11.5047 30.73 11.5047 30.73C11.5047 30.73 11.5047 30.73 11.5047 30.73C11.5047 30.73 11.5047 30.73 11.5047 30.73C11.5047 30.73 11.5047 30.73 11.5047 30.73C11.5047 30.73 11.5047 30.73 11.5047 30.73C11.5047 30.73 11.5047 30.73 11.5047 30.73C11.5047 30.73 11.5047 30.73 11.5047 30.73C11.5047 30.73 11.5047 30.73 11.5047 30.73C11.5047 30.73 11.5047 30.73 11.5047 30.73C11.5047 30.73 11.5047 30.73 11.5047 30.73C11.5047 30.73 11.5047 30.73 11.5047 30.73C11.5047 30.73 11.5047 30.73 11.5047 30.73C11.5047 30.73 11.5048 30.73 11.5048 30.73C11.5048 30.73 11.5048 30.73 11.5048 30.73C11.5048 30.73 11.5048 30.73 11.5048 30.73C11.5048 30.73 11.5048 30.73 11.5048 30.73C11.5048 30.73 11.5048 30.73 11.5048 30.73C11.5048 30.73 11.5048 30.73 11.5048 30.73C11.5048 30.73 11.5048 30.73 11.5048 30.73C11.5048 30.73 11.5048 30.73 11.5048 30.73C11.5048 30.73 11.5048 30.73 11.5048 30.73C11.5048 30.73 11.5048 30.73 11.5048 30.73C11.5048 30.73 11.5048 30.73 11.5048 30.73C11.5048 30.73 11.5048 30.73 11.5048 30.73C11.5048 30.73 11.5048 30.73 11.5048 30.73C11.5048 30.73 11.5048 30.73 11.5048 30.73C11.5048 30.73 11.5048 30.73 11.5048 30.73C11.5048 30.73 11.5048 30.73 11.5049 30.73C11.5049 30.73 11.5049 30.73 11.5049 30.73C11.5049 30.73 11.5049 30.73 11.5049 30.73C11.5049 30.73 11.5049 30.73 11.5049 30.73C11.5049 30.73 11.5049 30.73 11.5049 30.73C11.5049 30.73 11.5049 30.73 11.5049 30.73C11.5049 30.73 11.5049 30.73 11.5049 30.73C11.5049 30.73 11.5049 30.73 11.5049 30.73C11.5049 30.73 11.5049 30.73 11.5049 30.73C11.5049 30.73 11.5049 30.73 11.5049 30.73C11.5049 30.73 11.5049 30.73 11.5049 30.73C11.5049 30.73 11.5049 30.73 11.5049 30.73C11.5049 30.73 11.5049 30.73 11.5049 30.73C11.5049 30.73 11.5049 30.73 11.5049 30.73C11.5049 30.73 11.5049 30.73 11.5049 30.73C11.5049 30.73 11.5049 30.73 11.5049 30.73C11.505 30.73 11.505 30.73 11.505 30.73C11.505 30.73 11.505 30.73 11.505 30.73C11.505 30.73 11.505 30.73 11.505 30.73C11.505 30.73 11.505 30.73 11.505 30.73C11.505 30.73 11.505 30.73 11.505 30.73C11.505 30.73 11.505 30.73 11.505 30.73C11.505 30.73 11.505 30.73 11.505 30.73C11.505 30.73 11.505 30.73 11.505 30.73C11.505 30.73 11.505 30.73 11.505 30.73C11.505 30.73 11.505 30.73 11.505 30.73C11.505 30.73 11.505 30.73 11.505 30.73C11.505 30.73 11.505 30.73 11.505 30.73C11.505 30.73 11.505 30.73 11.505 30.73C11.505 30.73 11.505 30.73 11.505 30.73C11.505 30.73 11.505 30.73 11.505 30.73C11.505 30.73 11.5051 30.73 11.5051 30.73C11.5051 30.73 11.5051 30.73 11.5051 30.73C11.5051 30.73 11.5051 30.73 11.5051 30.73C11.5051 30.73 11.5051 30.73 11.5051 30.73C11.5051 30.73 11.5051 30.73 11.5051 30.73C11.5051 30.73 11.5051 30.73 11.5051 30.73C11.5051 30.73 11.5051 30.73 11.5051 30.73C11.5051 30.73 11.5051 30.73 11.5051 30.73C11.5051 30.73 11.5051 30.73 11.5051 30.73C11.5051 30.73 11.5051 30.73 11.5051 30.73C11.5051 30.73 11.5051 30.73 11.5051 30.73C11.5051 30.73 11.5051 30.73 11.5051 30.73C11.5051 30.73 11.5051 30.73 11.5051 30.73C11.5051 30.73 11.5051 30.73 11.5051 30.73C11.5051 30.73 11.5051 30.73 11.5051 30.73C11.5051 30.73 11.5051 30.73 11.5052 30.73C11.5052 30.73 11.5052 30.73 11.5052 30.73C11.5052 30.73 11.5052 30.73 11.5052 30.73C11.5052 30.73 11.5052 30.73 11.5052 30.73C11.5052 30.73 11.5052 30.73 11.5052 30.73C11.5052 30.73 11.5052 30.73 11.5052 30.73C11.5052 30.73 11.5052 30.73 11.5052 30.73C11.5052 30.73 11.5052 30.73 11.5052 30.73C11.5052 30.73 11.5052 30.73 11.5052 30.73C11.5052 30.73 11.5052 30.73 11.5052 30.73C11.5052 30.73 11.5052 30.73 11.5052 30.73C11.5052 30.73 11.5052 30.73 11.5052 30.73C11.5052 30.73 11.5052 30.73 11.5052 30.73C11.5052 30.73 11.5052 30.73 11.5052 30.73C11.5052 30.73 11.5052 30.73 11.5052 30.73C11.5052 30.73 11.5053 30.73 11.5053 30.73C11.5053 30.73 11.5053 30.73 11.5053 30.73C11.5053 30.73 11.5053 30.73 11.5053 30.73C11.5053 30.73 11.5053 30.73 11.5053 30.73C11.5053 30.73 11.5053 30.73 11.5053 30.73C11.5053 30.73 11.5053 30.73 11.5053 30.73C11.5053 30.73 11.5053 30.73 11.5053 30.73C11.5053 30.73 11.5053 30.73 11.5053 30.73C11.5053 30.73 11.5053 30.73 11.5053 30.73C11.5053 30.73 11.5053 30.73 11.5053 30.73C11.5053 30.73 11.5053 30.73 11.5053 30.73C11.5053 30.73 11.5053 30.73 11.5053 30.73C11.5053 30.73 11.5053 30.73 11.5053 30.73C11.5053 30.73 11.5053 30.73 11.5053 30.73C11.5053 30.73 11.5053 30.73 11.5054 30.73C11.5054 30.73 11.5054 30.73 11.5054 30.73C11.5054 30.73 11.5054 30.73 11.5054 30.73C11.5054 30.73 11.5054 30.73 11.5054 30.73C11.5054 30.73 11.5054 30.73 11.5054 30.73C11.5054 30.73 11.5054 30.73 11.5054 30.73C11.5054 30.73 11.5054 30.73 11.5054 30.73C11.5054 30.73 11.5054 30.73 11.5054 30.73C11.5054 30.73 11.5054 30.73 11.5054 30.73C11.5054 30.73 11.5054 30.73 11.5054 30.73C11.5054 30.73 11.5054 30.73 11.5054 30.73C11.5054 30.73 11.5054 30.73 11.5054 30.73C11.5054 30.73 11.5054 30.73 11.5054 30.73C11.5054 30.73 11.5054 30.73 11.5054 30.73C11.5054 30.73 11.5054 30.73 11.5054 30.73C11.5055 30.73 11.5055 30.73 11.5055 30.73C11.5055 30.73 11.5055 30.73 11.5055 30.73C11.5055 30.73 11.5055 30.73 11.5055 30.73C11.5055 30.73 11.5055 30.73 11.5055 30.73C11.5055 30.73 11.5055 30.73 11.5055 30.73C11.5055 30.73 11.5055 30.73 11.5055 30.73C11.5055 30.73 11.5055 30.73 11.5055 30.73C11.5055 30.73 11.5055 30.73 11.5055 30.73C11.5055 30.73 11.5055 30.73 11.5055 30.73C11.5055 30.73 11.5055 30.73 11.5055 30.73C11.5055 30.73 11.5055 30.73 11.5055 30.73C11.5055 30.73 11.5055 30.73 11.5055 30.73C11.5055 30.73 11.5055 30.73 11.5055 30.73C11.5055 30.73 11.5056 30.73 11.5056 30.73C11.5056 30.73 11.5056 30.73 11.5056 30.73C11.5056 30.73 11.5056 30.73 11.5056 30.73C11.5056 30.73 11.5056 30.73 11.5056 30.73C11.5056 30.73 11.5056 30.73 11.5056 30.73C11.5056 30.73 11.5056 30.73 11.5056 30.73C11.5056 30.73 11.5056 30.73 11.5056 30.73C11.5056 30.73 11.5056 30.73 11.5056 30.73C11.5056 30.73 11.5056 30.73 11.5056 30.73C11.5056 30.73 11.5056 30.73 11.5056 30.73C11.5056 30.73 11.5056 30.73 11.5056 30.73C11.5056 30.73 11.5056 30.73 11.5056 30.73C11.5056 30.73 11.5056 30.73 11.5056 30.73C11.5056 30.73 11.5057 30.73 11.5057 30.73C11.5057 30.73 11.5057 30.73 11.5057 30.73C11.5057 30.73 11.5057 30.73 11.5057 30.73C11.5057 30.73 11.5057 30.73 11.5057 30.73C11.5057 30.73 11.5057 30.73 11.5057 30.73C11.5057 30.73 11.5057 30.73 11.5057 30.73C11.5057 30.73 11.5057 30.73 11.5057 30.73C11.5057 30.73 11.5057 30.73 11.5057 30.73C11.5057 30.73 11.5057 30.73 11.5057 30.73C11.5057 30.73 11.5057 30.73 11.5057 30.73C11.5057 30.73 11.5057 30.73 11.5057 30.73C11.5057 30.73 11.5057 30.73 11.5057 30.73C11.5057 30.73 11.5057 30.73 11.5057 30.73C11.5058 30.73 11.5058 30.73 11.5058 30.73C11.5058 30.73 11.5058 30.73 11.5058 30.73C11.5058 30.73 11.5058 30.73 11.5058 30.73C11.5058 30.73 11.5058 30.73 11.5058 30.73C11.5058 30.73 11.5058 30.73 11.5058 30.73C11.5058 30.73 11.5058 30.73 11.5058 30.73C11.5058 30.73 11.5058 30.73 11.5058 30.73C11.5058 30.73 11.5058 30.73 11.5058 30.73C11.5058 30.73 11.5058 30.73 11.5058 30.73C11.5058 30.73 11.5058 30.73 11.5058 30.73C11.5058 30.73 11.5058 30.73 11.5058 30.73C11.5058 30.73 11.5058 30.73 11.5058 30.73C11.5058 30.73 11.5059 30.73 11.5059 30.73C11.5059 30.73 11.5059 30.73 11.5059 30.73C11.5059 30.73 11.5059 30.73 11.5059 30.73C11.5059 30.73 11.5059 30.73 11.5059 30.73C11.5059 30.73 11.5059 30.73 11.5059 30.73C11.5059 30.73 11.5059 30.73 11.5059 30.73C11.5059 30.73 11.5059 30.73 11.5059 30.73C11.5059 30.73 11.5059 30.73 11.5059 30.73C11.5059 30.73 11.5059 30.73 11.5059 30.73C11.5059 30.73 11.5059 30.73 11.5059 30.73C11.5059 30.73 11.5059 30.73 11.5059 30.73C11.5059 30.73 11.5059 30.73 11.5059 30.73C11.506 30.73 11.506 30.73 11.506 30.73C11.506 30.73 11.506 30.73 11.506 30.73C11.506 30.73 11.506 30.73 11.506 30.73C11.506 30.73 11.506 30.73 11.506 30.73C11.506 30.73 11.506 30.73 11.506 30.73C11.506 30.73 11.506 30.73 11.506 30.73C11.506 30.73 11.506 30.73 11.506 30.73C11.506 30.73 11.506 30.73 11.506 30.73C11.506 30.73 11.506 30.73 11.506 30.73C11.506 30.73 11.506 30.73 11.506 30.73C11.506 30.73 11.506 30.73 11.506 30.73C11.5061 30.73 11.5061 30.73 11.5061 30.73C11.5061 30.73 11.5061 30.73 11.5061 30.73C11.5061 30.73 11.5061 30.73 11.5061 30.73C11.5061 30.73 11.5061 30.73 11.5061 30.73C11.5061 30.73 11.5061 30.73 11.5061 30.73C11.5061 30.73 11.5061 30.73 11.5061 30.73C11.5061 30.73 11.5061 30.73 11.5061 30.73C11.5061 30.73 11.5061 30.73 11.5061 30.73C11.5061 30.73 11.5061 30.73 11.5061 30.73C11.5061 30.73 11.5061 30.73 11.5061 30.73C11.5061 30.73 11.5061 30.73 11.5061 30.73C11.5062 30.73 11.5062 30.73 11.5062 30.73C11.5062 30.73 11.5062 30.73 11.5062 30.73C11.5062 30.73 11.5062 30.73 11.5062 30.73C11.5062 30.73 11.5062 30.73 11.5062 30.73C11.5062 30.73 11.5062 30.73 11.5062 30.73C11.5062 30.73 11.5062 30.73 11.5062 30.73C11.5062 30.73 11.5062 30.73 11.5062 30.73C11.5062 30.73 11.5062 30.73 11.5062 30.73C11.5062 30.73 11.5062 30.73 11.5062 30.73C11.5062 30.73 11.5062 30.73 11.5062 30.73C11.5062 30.73 11.5063 30.73 11.5063 30.73C11.5063 30.73 11.5063 30.73 11.5063 30.73C11.5063 30.73 11.5063 30.73 11.5063 30.73C11.5063 30.73 11.5063 30.73 11.5063 30.73C11.5063 30.73 11.5063 30.73 11.5063 30.73C11.5063 30.73 11.5063 30.73 11.5063 30.73C11.5063 30.73 11.5063 30.73 11.5063 30.73C11.5063 30.73 11.5063 30.73 11.5063 30.73C11.5063 30.73 11.5063 30.73 11.5063 30.73C11.5063 30.73 11.5063 30.73 11.5063 30.73C11.5063 30.73 11.5064 30.73 11.5064 30.73C11.5064 30.73 11.5064 30.73 11.5064 30.73C11.5064 30.73 11.5064 30.73 11.5064 30.73C11.5064 30.73 11.5064 30.73 11.5064 30.73C11.5064 30.73 11.5064 30.73 11.5064 30.73C11.5064 30.73 11.5064 30.73 11.5064 30.73C11.5064 30.73 11.5064 30.73 11.5064 30.73C11.5064 30.73 11.5064 30.73 11.5064 30.73C11.5064 30.73 11.5064 30.73 11.5064 30.73C11.5064 30.73 11.5064 30.73 11.5064 30.73C11.5065 30.73 11.5065 30.73 11.5065 30.73C11.5065 30.73 11.5065 30.73 11.5065 30.73C11.5065 30.73 11.5065 30.73 11.5065 30.73C11.5065 30.73 11.5065 30.73 11.5065 30.73C11.5065 30.73 11.5065 30.73 11.5065 30.73C11.5065 30.73 11.5065 30.73 11.5065 30.73C11.5065 30.73 11.5065 30.73 11.5065 30.73C11.5065 30.73 11.5065 30.73 11.5065 30.73C11.5065 30.73 11.5065 30.73 11.5065 30.73C11.5065 30.73 11.5066 30.73 11.5066 30.73C11.5066 30.73 11.5066 30.73 11.5066 30.73C11.5066 30.73 11.5066 30.73 11.5066 30.73C11.5066 30.73 11.5066 30.73 11.5066 30.73C11.5066 30.73 11.5066 30.73 11.5066 30.73C11.5066 30.73 11.5066 30.73 11.5066 30.73C11.5066 30.73 11.5066 30.73 11.5066 30.73C11.5066 30.73 11.5066 30.73 11.5066 30.73C11.5066 30.73 11.5066 30.73 11.5066 30.73C11.5066 30.73 11.5067 30.73 11.5067 30.73C11.5067 30.73 11.5067 30.73 11.5067 30.73C11.5067 30.73 11.5067 30.73 11.5067 30.73C11.5067 30.73 11.5067 30.73 11.5067 30.73C11.5067 30.73 11.5067 30.73 11.5067 30.73C11.5067 30.73 11.5067 30.73 11.5067 30.73C11.5067 30.73 11.5067 30.73 11.5067 30.73C11.5067 30.73 11.5067 30.73 11.5067 30.73C11.5067 30.73 11.5067 30.73 11.5067 30.73C11.5068 30.73 11.5068 30.73 11.5068 30.73C11.5068 30.73 11.5068 30.73 11.5068 30.73C11.5068 30.73 11.5068 30.73 11.5068 30.73C11.5068 30.73 11.5068 30.73 11.5068 30.73C11.5068 30.73 11.5068 30.73 11.5068 30.73C11.5068 30.73 11.5068 30.73 11.5068 30.73C11.5068 30.73 11.5068 30.73 11.5068 30.73C11.5068 30.73 11.5068 30.73 11.5068 30.73C11.5068 30.73 11.5069 30.73 11.5069 30.73C11.5069 30.73 11.5069 30.73 11.5069 30.73C11.5069 30.73 11.5069 30.73 11.5069 30.73C11.5069 30.73 11.5069 30.73 11.5069 30.73C11.5069 30.73 11.5069 30.73 11.5069 30.73C11.5069 30.73 11.5069 30.73 11.5069 30.73C11.5069 30.73 11.5069 30.73 11.5069 30.73C11.5069 30.73 11.5069 30.73 11.5069 30.73C11.5069 30.73 11.507 30.73 11.507 30.73C11.507 30.73 11.507 30.73 11.507 30.73C11.507 30.73 11.507 30.73 11.507 30.73C11.507 30.73 11.507 30.73 11.507 30.73C11.507 30.73 11.507 30.73 11.507 30.73C11.507 30.73 11.507 30.73 11.507 30.73C11.507 30.73 11.507 30.73 11.507 30.73C11.507 30.73 11.507 30.73 11.507 30.73C11.507 30.73 11.5071 30.73 11.5071 30.73C11.5071 30.73 11.5071 30.73 11.5071 30.73V26.73V22.73C11.5071 22.73 11.5071 22.73 11.5071 22.73C11.5071 22.73 11.507 22.73 11.507 22.73C11.507 22.73 11.507 22.73 11.507 22.73C11.507 22.73 11.507 22.73 11.507 22.73C11.507 22.73 11.507 22.73 11.507 22.73C11.507 22.73 11.507 22.73 11.507 22.73C11.507 22.73 11.507 22.73 11.507 22.73C11.507 22.73 11.507 22.73 11.507 22.73C11.507 22.73 11.507 22.73 11.507 22.73C11.507 22.73 11.5069 22.73 11.5069 22.73C11.5069 22.73 11.5069 22.73 11.5069 22.73C11.5069 22.73 11.5069 22.73 11.5069 22.73C11.5069 22.73 11.5069 22.73 11.5069 22.73C11.5069 22.73 11.5069 22.73 11.5069 22.73C11.5069 22.73 11.5069 22.73 11.5069 22.73C11.5069 22.73 11.5069 22.73 11.5069 22.73C11.5069 22.73 11.5069 22.73 11.5069 22.73C11.5069 22.73 11.5068 22.73 11.5068 22.73C11.5068 22.73 11.5068 22.73 11.5068 22.73C11.5068 22.73 11.5068 22.73 11.5068 22.73C11.5068 22.73 11.5068 22.73 11.5068 22.73C11.5068 22.73 11.5068 22.73 11.5068 22.73C11.5068 22.73 11.5068 22.73 11.5068 22.73C11.5068 22.73 11.5068 22.73 11.5068 22.73C11.5068 22.73 11.5068 22.73 11.5068 22.73C11.5068 22.73 11.5068 22.73 11.5067 22.73C11.5067 22.73 11.5067 22.73 11.5067 22.73C11.5067 22.73 11.5067 22.73 11.5067 22.73C11.5067 22.73 11.5067 22.73 11.5067 22.73C11.5067 22.73 11.5067 22.73 11.5067 22.73C11.5067 22.73 11.5067 22.73 11.5067 22.73C11.5067 22.73 11.5067 22.73 11.5067 22.73C11.5067 22.73 11.5067 22.73 11.5067 22.73C11.5067 22.73 11.5067 22.73 11.5067 22.73C11.5067 22.73 11.5066 22.73 11.5066 22.73C11.5066 22.73 11.5066 22.73 11.5066 22.73C11.5066 22.73 11.5066 22.73 11.5066 22.73C11.5066 22.73 11.5066 22.73 11.5066 22.73C11.5066 22.73 11.5066 22.73 11.5066 22.73C11.5066 22.73 11.5066 22.73 11.5066 22.73C11.5066 22.73 11.5066 22.73 11.5066 22.73C11.5066 22.73 11.5066 22.73 11.5066 22.73C11.5066 22.73 11.5066 22.73 11.5066 22.73C11.5066 22.73 11.5065 22.73 11.5065 22.73C11.5065 22.73 11.5065 22.73 11.5065 22.73C11.5065 22.73 11.5065 22.73 11.5065 22.73C11.5065 22.73 11.5065 22.73 11.5065 22.73C11.5065 22.73 11.5065 22.73 11.5065 22.73C11.5065 22.73 11.5065 22.73 11.5065 22.73C11.5065 22.73 11.5065 22.73 11.5065 22.73C11.5065 22.73 11.5065 22.73 11.5065 22.73C11.5065 22.73 11.5065 22.73 11.5065 22.73C11.5065 22.73 11.5065 22.73 11.5064 22.73C11.5064 22.73 11.5064 22.73 11.5064 22.73C11.5064 22.73 11.5064 22.73 11.5064 22.73C11.5064 22.73 11.5064 22.73 11.5064 22.73C11.5064 22.73 11.5064 22.73 11.5064 22.73C11.5064 22.73 11.5064 22.73 11.5064 22.73C11.5064 22.73 11.5064 22.73 11.5064 22.73C11.5064 22.73 11.5064 22.73 11.5064 22.73C11.5064 22.73 11.5064 22.73 11.5064 22.73C11.5064 22.73 11.5064 22.73 11.5064 22.73C11.5064 22.73 11.5063 22.73 11.5063 22.73C11.5063 22.73 11.5063 22.73 11.5063 22.73C11.5063 22.73 11.5063 22.73 11.5063 22.73C11.5063 22.73 11.5063 22.73 11.5063 22.73C11.5063 22.73 11.5063 22.73 11.5063 22.73C11.5063 22.73 11.5063 22.73 11.5063 22.73C11.5063 22.73 11.5063 22.73 11.5063 22.73C11.5063 22.73 11.5063 22.73 11.5063 22.73C11.5063 22.73 11.5063 22.73 11.5063 22.73C11.5063 22.73 11.5063 22.73 11.5063 22.73C11.5063 22.73 11.5062 22.73 11.5062 22.73C11.5062 22.73 11.5062 22.73 11.5062 22.73C11.5062 22.73 11.5062 22.73 11.5062 22.73C11.5062 22.73 11.5062 22.73 11.5062 22.73C11.5062 22.73 11.5062 22.73 11.5062 22.73C11.5062 22.73 11.5062 22.73 11.5062 22.73C11.5062 22.73 11.5062 22.73 11.5062 22.73C11.5062 22.73 11.5062 22.73 11.5062 22.73C11.5062 22.73 11.5062 22.73 11.5062 22.73C11.5062 22.73 11.5062 22.73 11.5062 22.73C11.5062 22.73 11.5062 22.73 11.5061 22.73C11.5061 22.73 11.5061 22.73 11.5061 22.73C11.5061 22.73 11.5061 22.73 11.5061 22.73C11.5061 22.73 11.5061 22.73 11.5061 22.73C11.5061 22.73 11.5061 22.73 11.5061 22.73C11.5061 22.73 11.5061 22.73 11.5061 22.73C11.5061 22.73 11.5061 22.73 11.5061 22.73C11.5061 22.73 11.5061 22.73 11.5061 22.73C11.5061 22.73 11.5061 22.73 11.5061 22.73C11.5061 22.73 11.5061 22.73 11.5061 22.73C11.5061 22.73 11.5061 22.73 11.5061 22.73C11.5061 22.73 11.5061 22.73 11.506 22.73C11.506 22.73 11.506 22.73 11.506 22.73C11.506 22.73 11.506 22.73 11.506 22.73C11.506 22.73 11.506 22.73 11.506 22.73C11.506 22.73 11.506 22.73 11.506 22.73C11.506 22.73 11.506 22.73 11.506 22.73C11.506 22.73 11.506 22.73 11.506 22.73C11.506 22.73 11.506 22.73 11.506 22.73C11.506 22.73 11.506 22.73 11.506 22.73C11.506 22.73 11.506 22.73 11.506 22.73C11.506 22.73 11.506 22.73 11.506 22.73C11.506 22.73 11.506 22.73 11.5059 22.73C11.5059 22.73 11.5059 22.73 11.5059 22.73C11.5059 22.73 11.5059 22.73 11.5059 22.73C11.5059 22.73 11.5059 22.73 11.5059 22.73C11.5059 22.73 11.5059 22.73 11.5059 22.73C11.5059 22.73 11.5059 22.73 11.5059 22.73C11.5059 22.73 11.5059 22.73 11.5059 22.73C11.5059 22.73 11.5059 22.73 11.5059 22.73C11.5059 22.73 11.5059 22.73 11.5059 22.73C11.5059 22.73 11.5059 22.73 11.5059 22.73C11.5059 22.73 11.5059 22.73 11.5059 22.73C11.5059 22.73 11.5059 22.73 11.5059 22.73C11.5059 22.73 11.5058 22.73 11.5058 22.73C11.5058 22.73 11.5058 22.73 11.5058 22.73C11.5058 22.73 11.5058 22.73 11.5058 22.73C11.5058 22.73 11.5058 22.73 11.5058 22.73C11.5058 22.73 11.5058 22.73 11.5058 22.73C11.5058 22.73 11.5058 22.73 11.5058 22.73C11.5058 22.73 11.5058 22.73 11.5058 22.73C11.5058 22.73 11.5058 22.73 11.5058 22.73C11.5058 22.73 11.5058 22.73 11.5058 22.73C11.5058 22.73 11.5058 22.73 11.5058 22.73C11.5058 22.73 11.5058 22.73 11.5058 22.73C11.5058 22.73 11.5058 22.73 11.5058 22.73C11.5058 22.73 11.5058 22.73 11.5057 22.73C11.5057 22.73 11.5057 22.73 11.5057 22.73C11.5057 22.73 11.5057 22.73 11.5057 22.73C11.5057 22.73 11.5057 22.73 11.5057 22.73C11.5057 22.73 11.5057 22.73 11.5057 22.73C11.5057 22.73 11.5057 22.73 11.5057 22.73C11.5057 22.73 11.5057 22.73 11.5057 22.73C11.5057 22.73 11.5057 22.73 11.5057 22.73C11.5057 22.73 11.5057 22.73 11.5057 22.73C11.5057 22.73 11.5057 22.73 11.5057 22.73C11.5057 22.73 11.5057 22.73 11.5057 22.73C11.5057 22.73 11.5057 22.73 11.5057 22.73C11.5057 22.73 11.5057 22.73 11.5057 22.73C11.5057 22.73 11.5056 22.73 11.5056 22.73C11.5056 22.73 11.5056 22.73 11.5056 22.73C11.5056 22.73 11.5056 22.73 11.5056 22.73C11.5056 22.73 11.5056 22.73 11.5056 22.73C11.5056 22.73 11.5056 22.73 11.5056 22.73C11.5056 22.73 11.5056 22.73 11.5056 22.73C11.5056 22.73 11.5056 22.73 11.5056 22.73C11.5056 22.73 11.5056 22.73 11.5056 22.73C11.5056 22.73 11.5056 22.73 11.5056 22.73C11.5056 22.73 11.5056 22.73 11.5056 22.73C11.5056 22.73 11.5056 22.73 11.5056 22.73C11.5056 22.73 11.5056 22.73 11.5056 22.73C11.5056 22.73 11.5056 22.73 11.5056 22.73C11.5056 22.73 11.5055 22.73 11.5055 22.73C11.5055 22.73 11.5055 22.73 11.5055 22.73C11.5055 22.73 11.5055 22.73 11.5055 22.73C11.5055 22.73 11.5055 22.73 11.5055 22.73C11.5055 22.73 11.5055 22.73 11.5055 22.73C11.5055 22.73 11.5055 22.73 11.5055 22.73C11.5055 22.73 11.5055 22.73 11.5055 22.73C11.5055 22.73 11.5055 22.73 11.5055 22.73C11.5055 22.73 11.5055 22.73 11.5055 22.73C11.5055 22.73 11.5055 22.73 11.5055 22.73C11.5055 22.73 11.5055 22.73 11.5055 22.73C11.5055 22.73 11.5055 22.73 11.5055 22.73C11.5055 22.73 11.5055 22.73 11.5055 22.73C11.5055 22.73 11.5055 22.73 11.5054 22.73C11.5054 22.73 11.5054 22.73 11.5054 22.73C11.5054 22.73 11.5054 22.73 11.5054 22.73C11.5054 22.73 11.5054 22.73 11.5054 22.73C11.5054 22.73 11.5054 22.73 11.5054 22.73C11.5054 22.73 11.5054 22.73 11.5054 22.73C11.5054 22.73 11.5054 22.73 11.5054 22.73C11.5054 22.73 11.5054 22.73 11.5054 22.73C11.5054 22.73 11.5054 22.73 11.5054 22.73C11.5054 22.73 11.5054 22.73 11.5054 22.73C11.5054 22.73 11.5054 22.73 11.5054 22.73C11.5054 22.73 11.5054 22.73 11.5054 22.73C11.5054 22.73 11.5054 22.73 11.5054 22.73C11.5054 22.73 11.5054 22.73 11.5054 22.73C11.5054 22.73 11.5054 22.73 11.5054 22.73C11.5053 22.73 11.5053 22.73 11.5053 22.73C11.5053 22.73 11.5053 22.73 11.5053 22.73C11.5053 22.73 11.5053 22.73 11.5053 22.73C11.5053 22.73 11.5053 22.73 11.5053 22.73C11.5053 22.73 11.5053 22.73 11.5053 22.73C11.5053 22.73 11.5053 22.73 11.5053 22.73C11.5053 22.73 11.5053 22.73 11.5053 22.73C11.5053 22.73 11.5053 22.73 11.5053 22.73C11.5053 22.73 11.5053 22.73 11.5053 22.73C11.5053 22.73 11.5053 22.73 11.5053 22.73C11.5053 22.73 11.5053 22.73 11.5053 22.73C11.5053 22.73 11.5053 22.73 11.5053 22.73C11.5053 22.73 11.5053 22.73 11.5053 22.73C11.5053 22.73 11.5053 22.73 11.5053 22.73C11.5053 22.73 11.5052 22.73 11.5052 22.73C11.5052 22.73 11.5052 22.73 11.5052 22.73C11.5052 22.73 11.5052 22.73 11.5052 22.73C11.5052 22.73 11.5052 22.73 11.5052 22.73C11.5052 22.73 11.5052 22.73 11.5052 22.73C11.5052 22.73 11.5052 22.73 11.5052 22.73C11.5052 22.73 11.5052 22.73 11.5052 22.73C11.5052 22.73 11.5052 22.73 11.5052 22.73C11.5052 22.73 11.5052 22.73 11.5052 22.73C11.5052 22.73 11.5052 22.73 11.5052 22.73C11.5052 22.73 11.5052 22.73 11.5052 22.73C11.5052 22.73 11.5052 22.73 11.5052 22.73C11.5052 22.73 11.5052 22.73 11.5052 22.73C11.5052 22.73 11.5052 22.73 11.5052 22.73C11.5052 22.73 11.5052 22.73 11.5052 22.73C11.5051 22.73 11.5051 22.73 11.5051 22.73C11.5051 22.73 11.5051 22.73 11.5051 22.73C11.5051 22.73 11.5051 22.73 11.5051 22.73C11.5051 22.73 11.5051 22.73 11.5051 22.73C11.5051 22.73 11.5051 22.73 11.5051 22.73C11.5051 22.73 11.5051 22.73 11.5051 22.73C11.5051 22.73 11.5051 22.73 11.5051 22.73C11.5051 22.73 11.5051 22.73 11.5051 22.73C11.5051 22.73 11.5051 22.73 11.5051 22.73C11.5051 22.73 11.5051 22.73 11.5051 22.73C11.5051 22.73 11.5051 22.73 11.5051 22.73C11.5051 22.73 11.5051 22.73 11.5051 22.73C11.5051 22.73 11.5051 22.73 11.5051 22.73C11.5051 22.73 11.5051 22.73 11.5051 22.73C11.5051 22.73 11.5051 22.73 11.5051 22.73C11.5051 22.73 11.505 22.73 11.505 22.73C11.505 22.73 11.505 22.73 11.505 22.73C11.505 22.73 11.505 22.73 11.505 22.73C11.505 22.73 11.505 22.73 11.505 22.73C11.505 22.73 11.505 22.73 11.505 22.73C11.505 22.73 11.505 22.73 11.505 22.73C11.505 22.73 11.505 22.73 11.505 22.73C11.505 22.73 11.505 22.73 11.505 22.73C11.505 22.73 11.505 22.73 11.505 22.73C11.505 22.73 11.505 22.73 11.505 22.73C11.505 22.73 11.505 22.73 11.505 22.73C11.505 22.73 11.505 22.73 11.505 22.73C11.505 22.73 11.505 22.73 11.505 22.73C11.505 22.73 11.505 22.73 11.505 22.73C11.505 22.73 11.505 22.73 11.505 22.73C11.505 22.73 11.505 22.73 11.5049 22.73C11.5049 22.73 11.5049 22.73 11.5049 22.73C11.5049 22.73 11.5049 22.73 11.5049 22.73C11.5049 22.73 11.5049 22.73 11.5049 22.73C11.5049 22.73 11.5049 22.73 11.5049 22.73C11.5049 22.73 11.5049 22.73 11.5049 22.73C11.5049 22.73 11.5049 22.73 11.5049 22.73C11.5049 22.73 11.5049 22.73 11.5049 22.73C11.5049 22.73 11.5049 22.73 11.5049 22.73C11.5049 22.73 11.5049 22.73 11.5049 22.73C11.5049 22.73 11.5049 22.73 11.5049 22.73C11.5049 22.73 11.5049 22.73 11.5049 22.73C11.5049 22.73 11.5049 22.73 11.5049 22.73C11.5049 22.73 11.5049 22.73 11.5049 22.73C11.5049 22.73 11.5049 22.73 11.5049 22.73C11.5049 22.73 11.5049 22.73 11.5049 22.73C11.5048 22.73 11.5048 22.73 11.5048 22.73C11.5048 22.73 11.5048 22.73 11.5048 22.73C11.5048 22.73 11.5048 22.73 11.5048 22.73C11.5048 22.73 11.5048 22.73 11.5048 22.73C11.5048 22.73 11.5048 22.73 11.5048 22.73C11.5048 22.73 11.5048 22.73 11.5048 22.73C11.5048 22.73 11.5048 22.73 11.5048 22.73C11.5048 22.73 11.5048 22.73 11.5048 22.73C11.5048 22.73 11.5048 22.73 11.5048 22.73C11.5048 22.73 11.5048 22.73 11.5048 22.73C11.5048 22.73 11.5048 22.73 11.5048 22.73C11.5048 22.73 11.5048 22.73 11.5048 22.73C11.5048 22.73 11.5048 22.73 11.5048 22.73C11.5048 22.73 11.5048 22.73 11.5048 22.73C11.5048 22.73 11.5048 22.73 11.5048 22.73C11.5048 22.73 11.5047 22.73 11.5047 22.73C11.5047 22.73 11.5047 22.73 11.5047 22.73C11.5047 22.73 11.5047 22.73 11.5047 22.73C11.5047 22.73 11.5047 22.73 11.5047 22.73C11.5047 22.73 11.5047 22.73 11.5047 22.73C11.5047 22.73 11.5047 22.73 11.5047 22.73C11.5047 22.73 11.5047 22.73 11.5047 22.73C11.5047 22.73 11.5047 22.73 11.5047 22.73C11.5047 22.73 11.5047 22.73 11.5047 22.73C11.5047 22.73 11.5047 22.73 11.5047 22.73C11.5047 22.73 11.5047 22.73 11.5047 22.73C11.5047 22.73 11.5047 22.73 11.5047 22.73C11.5047 22.73 11.5047 22.73 11.5047 22.73C11.5047 22.73 11.5047 22.73 11.5047 22.73C11.5047 22.73 11.5047 22.73 11.5047 22.73C11.5047 22.73 11.5047 22.73 11.5046 22.73C11.5046 22.73 11.5046 22.73 11.5046 22.73C11.5046 22.73 11.5046 22.73 11.5046 22.73C11.5046 22.73 11.5046 22.73 11.5046 22.73C11.5046 22.73 11.5046 22.73 11.5046 22.73C11.5046 22.73 11.5046 22.73 11.5046 22.73C11.5046 22.73 11.5046 22.73 11.5046 22.73C11.5046 22.73 11.5046 22.73 11.5046 22.73C11.5046 22.73 11.5046 22.73 11.5046 22.73C11.5046 22.73 11.5046 22.73 11.5046 22.73C11.5046 22.73 11.5046 22.73 11.5046 22.73C11.5046 22.73 11.5046 22.73 11.5046 22.73C11.5046 22.73 11.5046 22.73 11.5046 22.73C11.5046 22.73 11.5046 22.73 11.5046 22.73C11.5046 22.73 11.5046 22.73 11.5046 22.73C11.5046 22.73 11.5046 22.73 11.5045 22.73C11.5045 22.73 11.5045 22.73 11.5045 22.73C11.5045 22.73 11.5045 22.73 11.5045 22.73C11.5045 22.73 11.5045 22.73 11.5045 22.73C11.5045 22.73 11.5045 22.73 11.5045 22.73C11.5045 22.73 11.5045 22.73 11.5045 22.73C11.5045 22.73 11.5045 22.73 11.5045 22.73C11.5045 22.73 11.5045 22.73 11.5045 22.73C11.5045 22.73 11.5045 22.73 11.5045 22.73C11.5045 22.73 11.5045 22.73 11.5045 22.73C11.5045 22.73 11.5045 22.73 11.5045 22.73C11.5045 22.73 11.5045 22.73 11.5045 22.73C11.5045 22.73 11.5045 22.73 11.5045 22.73C11.5045 22.73 11.5045 22.73 11.5045 22.73C11.5045 22.73 11.5045 22.73 11.5045 22.73C11.5045 22.73 11.5044 22.73 11.5044 22.73C11.5044 22.73 11.5044 22.73 11.5044 22.73C11.5044 22.73 11.5044 22.73 11.5044 22.73C11.5044 22.73 11.5044 22.73 11.5044 22.73C11.5044 22.73 11.5044 22.73 11.5044 22.73C11.5044 22.73 11.5044 22.73 11.5044 22.73C11.5044 22.73 11.5044 22.73 11.5044 22.73C11.5044 22.73 11.5044 22.73 11.5044 22.73C11.5044 22.73 11.5044 22.73 11.5044 22.73C11.5044 22.73 11.5044 22.73 11.5044 22.73C11.5044 22.73 11.5044 22.73 11.5044 22.73C11.5044 22.73 11.5044 22.73 11.5044 22.73C11.5044 22.73 11.5044 22.73 11.5044 22.73C11.5044 22.73 11.5044 22.73 11.5044 22.73C11.5044 22.73 11.5044 22.73 11.5044 22.73C11.5043 22.73 11.5043 22.73 11.5043 22.73C11.5043 22.73 11.5043 22.73 11.5043 22.73C11.5043 22.73 11.5043 22.73 11.5043 22.73C11.5043 22.73 11.5043 22.73 11.5043 22.73C11.5043 22.73 11.5043 22.73 11.5043 22.73C11.5043 22.73 11.5043 22.73 11.5043 22.73C11.5043 22.73 11.5043 22.73 11.5043 22.73C11.5043 22.73 11.5043 22.73 11.5043 22.73C11.5043 22.73 11.5043 22.73 11.5043 22.73C11.5043 22.73 11.5043 22.73 11.5043 22.73C11.5043 22.73 11.5043 22.73 11.5043 22.73C11.5043 22.73 11.5043 22.73 11.5043 22.73C11.5043 22.73 11.5043 22.73 11.5043 22.73C11.5043 22.73 11.5043 22.73 11.5042 22.73C11.5042 22.73 11.5042 22.73 11.5042 22.73C11.5042 22.73 11.5042 22.73 11.5042 22.73C11.5042 22.73 11.5042 22.73 11.5042 22.73C11.5042 22.73 11.5042 22.73 11.5042 22.73C11.5042 22.73 11.5042 22.73 11.5042 22.73C11.5042 22.73 11.5042 22.73 11.5042 22.73C11.5042 22.73 11.5042 22.73 11.5042 22.73C11.5042 22.73 11.5042 22.73 11.5042 22.73C11.5042 22.73 11.5042 22.73 11.5042 22.73C11.5042 22.73 11.5042 22.73 11.5042 22.73C11.5042 22.73 11.5042 22.73 11.5042 22.73C11.5042 22.73 11.5042 22.73 11.5042 22.73C11.5042 22.73 11.5042 22.73 11.5042 22.73C11.5042 22.73 11.5041 22.73 11.5041 22.73C11.5041 22.73 11.5041 22.73 11.5041 22.73C11.5041 22.73 11.5041 22.73 11.5041 22.73C11.5041 22.73 11.5041 22.73 11.5041 22.73C11.5041 22.73 11.5041 22.73 11.5041 22.73C11.5041 22.73 11.5041 22.73 11.5041 22.73C11.5041 22.73 11.5041 22.73 11.5041 22.73C11.5041 22.73 11.5041 22.73 11.5041 22.73C11.5041 22.73 11.5041 22.73 11.5041 22.73C11.5041 22.73 11.5041 22.73 11.5041 22.73C11.5041 22.73 11.5041 22.73 11.5041 22.73C11.5041 22.73 11.5041 22.73 11.5041 22.73C11.5041 22.73 11.5041 22.73 11.5041 22.73C11.5041 22.73 11.504 22.73 11.504 22.73C11.504 22.73 11.504 22.73 11.504 22.73C11.504 22.73 11.504 22.73 11.504 22.73C11.504 22.73 11.504 22.73 11.504 22.73C11.504 22.73 11.504 22.73 11.504 22.73C11.504 22.73 11.504 22.73 11.504 22.73C11.504 22.73 11.504 22.73 11.504 22.73C11.504 22.73 11.504 22.73 11.504 22.73C11.504 22.73 11.504 22.73 11.504 22.73C11.504 22.73 11.504 22.73 11.504 22.73C11.504 22.73 11.504 22.73 11.504 22.73C11.504 22.73 11.504 22.73 11.504 22.73C11.504 22.73 11.504 22.73 11.504 22.73C11.5039 22.73 11.5039 22.73 11.5039 22.73C11.5039 22.73 11.5039 22.73 11.5039 22.73C11.5039 22.73 11.5039 22.73 11.5039 22.73C11.5039 22.73 11.5039 22.73 11.5039 22.73C11.5039 22.73 11.5039 22.73 11.5039 22.73C11.5039 22.73 11.5039 22.73 11.5039 22.73C11.5039 22.73 11.5039 22.73 11.5039 22.73C11.5039 22.73 11.5039 22.73 11.5039 22.73C11.5039 22.73 11.5039 22.73 11.5039 22.73C11.5039 22.73 11.5039 22.73 11.5039 22.73C11.5039 22.73 11.5039 22.73 11.5039 22.73C11.5039 22.73 11.5039 22.73 11.5039 22.73C11.5038 22.73 11.5038 22.73 11.5038 22.73C11.5038 22.73 11.5038 22.73 11.5038 22.73C11.5038 22.73 11.5038 22.73 11.5038 22.73C11.5038 22.73 11.5038 22.73 11.5038 22.73C11.5038 22.73 11.5038 22.73 11.5038 22.73C11.5038 22.73 11.5038 22.73 11.5038 22.73C11.5038 22.73 11.5038 22.73 11.5038 22.73C11.5038 22.73 11.5038 22.73 11.5038 22.73C11.5038 22.73 11.5038 22.73 11.5038 22.73C11.5038 22.73 11.5038 22.73 11.5038 22.73C11.5038 22.73 11.5038 22.73 11.5038 22.73C11.5038 22.73 11.5038 22.73 11.5037 22.73C11.5037 22.73 11.5037 22.73 11.5037 22.73C11.5037 22.73 11.5037 22.73 11.5037 22.73C11.5037 22.73 11.5037 22.73 11.5037 22.73C11.5037 22.73 11.5037 22.73 11.5037 22.73C11.5037 22.73 11.5037 22.73 11.5037 22.73C11.5037 22.73 11.5037 22.73 11.5037 22.73C11.5037 22.73 11.5037 22.73 11.5037 22.73C11.5037 22.73 11.5037 22.73 11.5037 22.73C11.5037 22.73 11.5037 22.73 11.5037 22.73C11.5037 22.73 11.5037 22.73 11.5037 22.73C11.5037 22.73 11.5037 22.73 11.5036 22.73C11.5036 22.73 11.5036 22.73 11.5036 22.73C11.5036 22.73 11.5036 22.73 11.5036 22.73C11.5036 22.73 11.5036 22.73 11.5036 22.73C11.5036 22.73 11.5036 22.73 11.5036 22.73C11.5036 22.73 11.5036 22.73 11.5036 22.73C11.5036 22.73 11.5036 22.73 11.5036 22.73C11.5036 22.73 11.5036 22.73 11.5036 22.73C11.5036 22.73 11.5036 22.73 11.5036 22.73C11.5036 22.73 11.5036 22.73 11.5036 22.73C11.5036 22.73 11.5036 22.73 11.5036 22.73C11.5036 22.73 11.5035 22.73 11.5035 22.73C11.5035 22.73 11.5035 22.73 11.5035 22.73C11.5035 22.73 11.5035 22.73 11.5035 22.73C11.5035 22.73 11.5035 22.73 11.5035 22.73C11.5035 22.73 11.5035 22.73 11.5035 22.73C11.5035 22.73 11.5035 22.73 11.5035 22.73C11.5035 22.73 11.5035 22.73 11.5035 22.73C11.5035 22.73 11.5035 22.73 11.5035 22.73C11.5035 22.73 11.5035 22.73 11.5035 22.73C11.5035 22.73 11.5035 22.73 11.5035 22.73C11.5035 22.73 11.5035 22.73 11.5034 22.73C11.5034 22.73 11.5034 22.73 11.5034 22.73C11.5034 22.73 11.5034 22.73 11.5034 22.73C11.5034 22.73 11.5034 22.73 11.5034 22.73C11.5034 22.73 11.5034 22.73 11.5034 22.73C11.5034 22.73 11.5034 22.73 11.5034 22.73C11.5034 22.73 11.5034 22.73 11.5034 22.73C11.5034 22.73 11.5034 22.73 11.5034 22.73C11.5034 22.73 11.5034 22.73 11.5034 22.73C11.5034 22.73 11.5034 22.73 11.5034 22.73C11.5034 22.73 11.5034 22.73 11.5033 22.73C11.5033 22.73 11.5033 22.73 11.5033 22.73C11.5033 22.73 11.5033 22.73 11.5033 22.73C11.5033 22.73 11.5033 22.73 11.5033 22.73C11.5033 22.73 11.5033 22.73 11.5033 22.73C11.5033 22.73 11.5033 22.73 11.5033 22.73C11.5033 22.73 11.5033 22.73 11.5033 22.73C11.5033 22.73 11.5033 22.73 11.5033 22.73C11.5033 22.73 11.5033 22.73 11.5033 22.73C11.5033 22.73 11.5033 22.73 11.5033 22.73C11.5033 22.73 11.5032 22.73 11.5032 22.73C11.5032 22.73 11.5032 22.73 11.5032 22.73C11.5032 22.73 11.5032 22.73 11.5032 22.73C11.5032 22.73 11.5032 22.73 11.5032 22.73C11.5032 22.73 11.5032 22.73 11.5032 22.73C11.5032 22.73 11.5032 22.73 11.5032 22.73C11.5032 22.73 11.5032 22.73 11.5032 22.73C11.5032 22.73 11.5032 22.73 11.5032 22.73C11.5032 22.73 11.5032 22.73 11.5032 22.73C11.5032 22.73 11.5032 22.73 11.5031 22.73C11.5031 22.73 11.5031 22.73 11.5031 22.73C11.5031 22.73 11.5031 22.73 11.5031 22.73C11.5031 22.73 11.5031 22.73 11.5031 22.73C11.5031 22.73 11.5031 22.73 11.5031 22.73C11.5031 22.73 11.5031 22.73 11.5031 22.73C11.5031 22.73 11.5031 22.73 11.5031 22.73C11.5031 22.73 11.5031 22.73 11.5031 22.73C11.5031 22.73 11.5031 22.73 11.5031 22.73C11.5031 22.73 11.503 22.73 11.503 22.73C11.503 22.73 11.503 22.73 11.503 22.73C11.503 22.73 11.503 22.73 11.503 22.73C11.503 22.73 11.503 22.73 11.503 22.73C11.503 22.73 11.503 22.73 11.503 22.73C11.503 22.73 11.503 22.73 11.503 22.73C11.503 22.73 11.503 22.73 11.503 22.73C11.503 22.73 11.503 22.73 11.503 22.73C11.503 22.73 11.503 22.73 11.503 22.73C11.5029 22.73 11.5029 22.73 11.5029 22.73C11.5029 22.73 11.5029 22.73 11.5029 22.73C11.5029 22.73 11.5029 22.73 11.5029 22.73C11.5029 22.73 11.5029 22.73 11.5029 22.73C11.5029 22.73 11.5029 22.73 11.5029 22.73C11.5029 22.73 11.5029 22.73 11.5029 22.73C11.5029 22.73 11.5029 22.73 11.5029 22.73C11.5029 22.73 11.5029 22.73 11.5029 22.73C11.5029 22.73 11.5029 22.73 11.5028 22.73C11.5028 22.73 11.5028 22.73 11.5028 22.73C11.5028 22.73 11.5028 22.73 11.5028 22.73C11.5028 22.73 11.5028 22.73 11.5028 22.73C11.5028 22.73 11.5028 22.73 11.5028 22.73C11.5028 22.73 11.5028 22.73 11.5028 22.73C11.5028 22.73 11.5028 22.73 11.5028 22.73C11.5028 22.73 11.5028 22.73 11.5028 22.73C11.5028 22.73 11.5028 22.73 11.5027 22.73C11.5027 22.73 11.5027 22.73 11.5027 22.73C11.5027 22.73 11.5027 22.73 11.5027 22.73C11.5027 22.73 11.5027 22.73 11.5027 22.73C11.5027 22.73 11.5027 22.73 11.5027 22.73C11.5027 22.73 11.5027 22.73 11.5027 22.73C11.5027 22.73 11.5027 22.73 11.5027 22.73C11.5027 22.73 11.5027 22.73 11.5027 22.73C11.5027 22.73 11.5026 22.73 11.5026 22.73V26.73ZM11.5071 26.73V30.73H11.8344V26.73V22.73H11.5071V26.73ZM11.8344 26.73H15.8344V26.7212H11.8344H7.83438V26.73H11.8344ZM11.8344 26.7212L11.9998 30.7177C18.1336 30.4638 23.0571 25.543 23.3147 19.4123L19.3182 19.2444L15.3217 19.0764C15.2388 21.05 13.6471 22.6427 11.6689 22.7246L11.8344 26.7212ZM19.3182 19.2444V23.2444H19.3293V19.2444V15.2444H19.3182V19.2444ZM19.3293 19.2444H23.3293V18.5815H19.3293H15.3293V19.2444H19.3293ZM19.3293 18.5815V14.5815H19.3182V18.5815V22.5815H19.3293V18.5815ZM19.3182 18.5815L23.3147 18.4136C23.057 12.2817 18.1329 7.36544 12.0043 7.10823L11.8366 11.1047L11.6689 15.1012C13.6478 15.1842 15.2389 16.7771 15.3217 18.7495L19.3182 18.5815ZM11.8366 11.1047L13.6242 7.52639L13.6198 7.52418L11.8322 11.1025L10.0445 14.6808L10.049 14.683L11.8366 11.1047ZM11.5314 23.7052V19.7052H11.4695V23.7052V27.7052H11.5314V23.7052ZM11.4695 23.7052L11.4965 19.7053C11.0538 19.7024 10.7058 19.3465 10.7012 18.9219L6.7014 18.966L2.70164 19.01C2.75446 23.8085 6.64826 27.6728 11.4425 27.7052L11.4695 23.7052ZM6.7014 18.966H10.7014V18.8533H6.7014H2.7014V18.966H6.7014ZM6.7014 18.8533L10.7011 18.9007C10.7063 18.4639 11.0603 18.1143 11.4931 18.1117L11.4695 14.1118L11.4458 10.1119C6.64172 10.1402 2.75843 14.0151 2.70168 18.8059L6.7014 18.8533ZM11.4695 14.1118V18.1118H11.5314V14.1118V10.1118H11.4695V14.1118ZM11.5314 14.1118L11.5046 18.1117C11.9492 18.1147 12.3017 18.474 12.3017 18.9107H16.3017H20.3017C20.3017 14.0624 16.3859 10.1442 11.5582 10.1119L11.5314 14.1118ZM16.3017 18.9107H12.3017C12.3017 19.3463 11.9526 19.7045 11.5046 19.7075L11.5314 23.7075L11.5582 27.7074C16.3869 27.675 20.3017 23.7602 20.3017 18.9107H16.3017ZM11.5314 23.7075H15.5314V23.7052H11.5314H7.5314V23.7075H11.5314Z" fill="#919191" mask="url(#path-2-inside-1_1384_1021)"/>
<path d="M11.5 18.1475C12.0011 18.1475 12.4092 18.5561 12.4092 19.0547C12.409 19.5532 12.0011 19.9619 11.5 19.9619C10.9992 19.9617 10.592 19.553 10.5918 19.0547C10.5918 18.5562 10.9991 18.1477 11.5 18.1475Z" stroke="#919191" stroke-width="1.8"/>
<path d="M11.5 4.4043C11.8451 4.4043 12.1239 4.68315 12.124 5.02637C12.124 5.36967 11.8451 5.64941 11.5 5.64941C11.1551 5.64919 10.877 5.36953 10.877 5.02637C10.8771 4.68329 11.1551 4.40452 11.5 4.4043Z" stroke="#919191" stroke-width="1.3"/>
</svg>
