<svg width="17" height="32" viewBox="0 0 17 32" fill="none" xmlns="http://www.w3.org/2000/svg">
<path d="M15.9131 9.24955C15.7559 9.15532 15.5825 9.07801 15.4009 9.02003V6.52674C15.4009 5.82853 14.7639 5.26077 13.9806 5.26077H11.1237C10.3404 5.26077 9.70347 5.82853 9.70347 6.52674V8.8944H7.31283V6.2634C7.31283 5.77779 6.86832 5.38399 6.32623 5.38399H6.17444L6.21861 1.09443C6.21861 0.49044 5.66567 0 4.98805 0H3.77647C3.09886 0 2.54863 0.49044 2.54863 1.09443L2.50447 5.38399H2.4611C1.9163 5.38399 1.47449 5.77779 1.47449 6.2634V9.14083C1.3986 9.17465 1.32812 9.21089 1.25765 9.24955C0.504142 9.66267 0 10.4044 0 11.2475V19.9691C0 20.0971 0.046073 20.2687 0.257489 20.416V29.4276C0.257489 30.5848 1.31186 31.5246 2.61017 31.5246H14.6284C15.016 31.5246 15.3792 31.4328 15.6909 31.2686C16.3197 30.94 16.7425 30.3336 16.7425 29.6402V20.416C16.9621 20.2614 17 20.0778 17 19.9691V11.0374C17 10.2884 16.5664 9.63127 15.9131 9.24955ZM10.7877 6.52674C10.7877 6.36004 10.9394 6.22716 11.1237 6.22716H13.9806C14.1649 6.22716 14.3167 6.36004 14.3167 6.52674V8.8944H10.7877V6.52674ZM3.63282 1.09443C3.63282 1.02437 3.69787 0.966384 3.77647 0.966384H4.98805C5.06937 0.966384 5.13442 1.02437 5.13442 1.09443L5.09026 5.38399H3.58865L3.63282 1.09443ZM2.55868 6.35037H6.22865V8.8944H2.55868V6.35037ZM13.1674 29.4276C13.1674 30.0509 12.5982 30.5583 11.8989 30.5583H2.61017C1.91087 30.5583 1.34168 30.0509 1.34168 29.4276V20.2687C1.34168 20.0682 1.2441 19.8821 1.08419 19.7517V11.2475C1.08419 10.4841 1.78077 9.8632 2.63999 9.86078H11.8718C12.7283 9.8632 13.4249 10.4841 13.4249 11.2475V19.7541C13.2623 19.8821 13.1674 20.0682 13.1674 20.2687V29.4276ZM15.9159 19.7468C15.7532 19.8725 15.6584 20.0561 15.6584 20.2518V29.6402C15.6584 30.1475 15.1949 30.5583 14.6284 30.5583H13.8776C14.1134 30.2321 14.2516 29.8431 14.2516 29.4276V20.4185C14.4712 20.2638 14.5091 20.0778 14.5091 19.9691V11.2475C14.5091 10.7281 14.3167 10.2498 13.9968 9.86078H14.5959C14.5959 9.86078 14.6175 9.86078 14.6284 9.8632C15.3412 9.87769 15.9159 10.3995 15.9159 11.0374V19.7468Z" fill="#919191"/>
<path d="M17 11.0373V19.9691C17 20.0778 16.9621 20.2615 16.7425 20.4161V29.6402C16.7425 30.3336 16.3197 30.94 15.6909 31.2686H13.4249V9.24951H15.9131C16.5664 9.63123 17 10.2884 17 11.0373Z" fill="#919191"/>
<path d="M11.0641 12.8541H3.44223C3.312 12.8541 3.20642 12.9482 3.20642 13.0643V17.7271C3.20642 17.8432 3.312 17.9373 3.44223 17.9373H11.0641C11.1943 17.9373 11.2999 17.8432 11.2999 17.7271V13.0643C11.2999 12.9482 11.1943 12.8541 11.0641 12.8541Z" fill="#919191"/>
<path d="M1.25765 9.24951C0.504142 9.66264 0 10.4043 0 11.2475V19.9691C0 20.0972 0.046073 20.2687 0.257489 20.4161V29.4276C0.257489 30.5848 1.31186 31.5247 2.61017 31.5247H14.6284V9.24951H1.25765ZM12.3841 17.7271C12.3841 18.3746 11.7932 18.9037 11.0641 18.9037H3.44229C2.71588 18.9037 2.12229 18.3746 2.12229 17.7271V13.0643C2.12229 12.4144 2.71588 11.8877 3.44229 11.8877H11.0641C11.7932 11.8877 12.3841 12.4144 12.3841 13.0643V17.7271ZM4.02775 26.3255H10.4814C10.8148 26.3255 11.0885 26.5695 11.0885 26.8667C11.0885 27.1638 10.8148 27.4054 10.4814 27.4054H4.02775C3.69436 27.4054 3.42061 27.1638 3.42061 26.8667C3.42061 26.5695 3.69436 26.3255 4.02775 26.3255ZM3.42061 24.1246C3.42061 23.8274 3.69436 23.5834 4.02775 23.5834H10.4814C10.8148 23.5834 11.0885 23.8274 11.0885 24.1246C11.0885 24.4217 10.8148 24.6633 10.4814 24.6633H4.02775C3.69436 24.6633 3.42061 24.4217 3.42061 24.1246ZM10.4814 21.9236H4.02775C3.69436 21.9236 3.42061 21.6796 3.42061 21.3825C3.42061 21.0853 3.69436 20.8413 4.02775 20.8413H10.4814C10.8148 20.8413 11.0885 21.0853 11.0885 21.3825C11.0885 21.6796 10.8148 21.9236 10.4814 21.9236Z" fill="#919191"/>
<path d="M5.55097 0.524658H3.20642V5.62557H5.55097V0.524658Z" fill="#919191"/>
<path d="M14.6688 5.74158H10.099V9.08526H14.6688V5.74158Z" fill="#919191"/>
</svg>
