<svg width="29" height="30" viewBox="0 0 29 30" fill="none" xmlns="http://www.w3.org/2000/svg">
<path d="M27.398 16.6948L27.2077 16.5875C23.2659 14.3872 20.5432 8.18922 20.5175 8.12702L20.4063 7.86967H14.8176V5.45912C16.734 4.97014 19.5251 4.27529 20.0427 4.18736L20.3231 4.08152L20.4833 3.93429C20.6437 3.59115 20.3464 3.39814 20.1689 3.28018C20.062 3.21156 19.9101 3.11076 19.7197 2.99066C19.3433 2.75046 18.8279 2.42448 18.2675 2.07276C17.1468 1.36718 15.8485 0.556515 15.1406 0.116869C14.9032 -0.0311096 14.6037 -0.0396881 14.3599 0.0975673C14.1161 0.232678 13.9642 0.492178 13.9642 0.773122V7.86967H8.60012L8.4889 8.12702C8.4611 8.18922 5.74054 14.3872 1.79873 16.5875L1.60838 16.6948L0 30H29L27.398 16.6948ZM16.2354 4.2136C18.0093 4.18736 18.0864 3.93429 18.9819 3.54183C18.2162 3.71768 16.9457 4.0308 14.8155 4.57339L16.2354 4.2136ZM28.0354 29.1422H21.264V19.0388L20.3036 17.3918H26.6195L28.0333 29.1422H28.0354ZM15.9298 23.0021H12.8435C12.6382 23.0021 12.4735 23.1694 12.4735 23.3731V29.1422H8.58942V19.5857H20.4084V29.1422H16.2998V23.3731C16.2998 23.1672 16.133 23.0021 15.9298 23.0021ZM11.5987 14.1084H17.4013L20.0919 18.7279H8.90811L11.5987 14.1084ZM16.7367 13.2505C17.0649 13.2505 19.8053 16.5339 19.8053 16.5339C20.3165 17.6406 21.4801 16.5339 25.5865 16.5339H19.8053L16.7367 12.8573L11.1089 13.2505C8.69423 13.4536 16.4085 13.2505 16.7367 13.2505ZM2.37835 17.3918H8.69423L7.7339 19.0388V29.1422H0.964599L2.37835 17.3918Z" fill="#282828"/>
</svg>
