<svg width="23" height="30" viewBox="0 0 23 30" fill="none" xmlns="http://www.w3.org/2000/svg">
<path d="M12.8644 11.1051C12.8644 10.0831 12.0381 9.25684 11.0161 9.25684C9.99406 9.25684 9.16779 10.0831 9.16779 11.1051C9.16779 11.9467 9.72965 12.656 10.4975 12.8797L8.79406 17.1484H8.79152V17.1534L7.33982 20.7916C7.32711 20.7916 7.27881 20.9365 7.2661 20.9721C7.26356 20.9772 7.26356 20.9797 7.26356 20.9797L5.65678 25.0018C5.65678 25.0018 5.57288 25.2789 5.55 25.2662L3.66101 30.0001H18.3712L11.5347 12.8797C12.3025 12.656 12.8644 11.9467 12.8644 11.1051ZM9.48813 18.1501L12.8975 20.7865H8.43559L9.48813 18.1501ZM7.95254 21.9967L13.922 24.9941H6.75508L7.95254 21.9967ZM9.14237 26.0111L9.16271 26.0568L9.03051 26.0111H9.14491H9.14237ZM5.16101 28.9831L6.29237 26.1509L14.5958 28.9831H5.16101ZM11.9975 16.7848H10.0347L11.0161 14.3263L11.9975 16.7848Z" fill="#919191"/>
<path d="M13.2331 14.2348L13.7467 15.1119C15.3967 14.1433 16.4238 12.356 16.4238 10.4441C16.4238 7.46192 13.9984 5.0365 11.0161 5.0365C8.03395 5.0365 5.60852 7.46192 5.60852 10.4441C5.60852 12.356 6.6331 14.1433 8.28564 15.1119L8.7992 14.2348C7.45937 13.4492 6.62547 11.9975 6.62547 10.4467C6.62547 8.02633 8.59581 6.05599 11.0161 6.05599C13.4365 6.05599 15.4068 8.02633 15.4068 10.4467C15.4068 11.9975 14.5729 13.4492 13.2331 14.2348Z" fill="#919191"/>
<path d="M19.1466 10.8661C19.1466 6.38134 15.4983 2.73303 11.0136 2.73303C6.52882 2.73303 2.88306 6.38134 2.88306 10.8661C2.88306 13.8534 4.51526 16.594 7.14408 18.0203L7.62967 17.1254C5.32882 15.8796 3.90255 13.4796 3.90255 10.8661C3.90255 6.9432 7.09323 3.74998 11.0161 3.74998C14.939 3.74998 18.1322 6.9432 18.1322 10.8661C18.1322 13.4796 16.7034 15.8771 14.4051 17.1254L14.8907 18.0203C17.517 16.594 19.1492 13.8534 19.1492 10.8661H19.1466Z" fill="#919191"/>
<path d="M11.0136 0.00254243C4.93983 0.00254243 0 4.94492 0 11.0212C0 15.1907 2.31102 18.9559 6.02797 20.8449L6.48814 19.9373C3.11187 18.2212 1.01441 14.8042 1.01441 11.0186C1.01441 5.50424 5.49915 1.01695 11.011 1.01695C16.5229 1.01695 21.0127 5.50424 21.0127 11.0186C21.0127 14.8017 18.9153 18.2186 15.539 19.9347L15.9992 20.8424C19.7186 18.9508 22.0271 15.1881 22.0271 11.0186C22.0271 4.94237 17.0847 0 11.0085 0L11.0136 0.00254243Z" fill="#919191"/>
</svg>
