<svg width="25" height="30" viewBox="0 0 25 30" fill="none" xmlns="http://www.w3.org/2000/svg">
<path d="M22.1195 3.30383H2.87805V5.08375H22.1195V3.30383Z" fill="#919191"/>
<path d="M22.8202 0H2.17974C0.978181 0 0 1.0569 0 2.3523V18.1356C0 18.8109 0.275113 19.446 0.757147 19.8803L11.6535 29.6686C11.898 29.8895 12.199 30 12.5 30C12.801 30 13.1019 29.8895 13.3465 29.6686L24.1558 19.9557C24.6919 19.4762 24.9999 18.7682 24.9999 18.0176V2.3523C24.9999 1.0569 24.0218 0 22.8202 0ZM24.2945 18.0176C24.2945 18.5448 24.0782 19.0418 23.702 19.3808L12.8927 29.0937C12.6646 29.2971 12.3354 29.2971 12.1073 29.0937L1.21096 19.3029C0.888823 19.0142 0.705416 18.59 0.705416 18.1356V2.3523C0.705416 1.47113 1.36616 0.753138 2.17974 0.753138H22.8202C23.6314 0.753138 24.2945 1.47113 24.2945 2.3523V18.0176Z" fill="#919191"/>
<path d="M2.87805 5.60339V17.2268C2.87805 17.7691 3.09909 18.2787 3.48471 18.6252L11.7992 26.0963C12.0014 26.277 12.2507 26.3699 12.4999 26.3699C12.7492 26.3699 12.9961 26.277 13.1983 26.0963L21.447 18.6854C21.8749 18.3013 22.1195 17.7364 22.1195 17.1364V5.60339H2.87805ZM18.0092 12.5523L14.7573 15.0754L16.0011 19.1574C16.0482 19.3155 15.8789 19.4486 15.7519 19.3507L12.4999 16.8277L9.24796 19.3507C9.12099 19.4486 8.94934 19.3155 8.99872 19.1574L10.2402 15.0754L6.98828 12.5523C6.8613 12.4544 6.92714 12.2411 7.08469 12.2411H11.1032L12.3447 8.15904C12.3941 8.00088 12.6057 8.00088 12.6528 8.15904L13.8943 12.2411H17.9152C18.0704 12.2411 18.1362 12.4544 18.0092 12.5523Z" fill="#919191"/>
</svg>
