<svg width="506" height="284" viewBox="0 0 506 284" fill="none" xmlns="http://www.w3.org/2000/svg">
<g clip-path="url(#clip0_3078_4000)">
<path d="M9.52222 185.074L9.5271 185.062L9.53296 185.05L9.52222 185.074ZM113.469 105.61L111.639 107.17H64.0701C57.2107 107.128 52.1726 109.899 48.9265 113.212C47.3972 114.774 46.3696 116.342 45.7048 117.561C45.369 118.177 45.1128 118.727 44.9236 119.175C44.9109 119.205 44.8996 119.236 44.8875 119.265L25.5652 160.198L18.4919 175.18H77.7898C82.8023 175.18 87.3505 172.328 89.5525 167.874L89.5583 167.861L89.5652 167.848L95.0652 156.648L95.2996 156.17H96.8201L90.531 169.38H91.9705C91.9403 169.416 91.9117 169.451 91.8826 169.485C91.8359 169.538 91.7912 169.582 91.7546 169.623C89.3885 171.043 82.8354 174.883 79.1716 177.02H13.3943L39.6326 122.46L39.8279 122.055L39.9871 121.634C41.2835 118.217 42.7799 116.182 43.7888 115.033C44.3082 114.441 44.7657 114.008 45.2 113.609C45.3154 113.503 45.7985 113.066 46.1404 112.728C46.2083 112.661 46.313 112.552 46.4451 112.413C47.2037 111.909 48.3206 111.209 49.6394 110.409C52.3318 108.775 55.414 106.994 57.0232 106.115C57.4904 105.86 57.8365 105.703 58.0632 105.61H113.469ZM93.9519 141.44L93.9001 141.52H79.2976L79.3376 141.44H93.9519ZM49.0154 108.105C48.9878 108.192 48.9607 108.276 48.9324 108.358C48.9609 108.275 48.9883 108.191 49.0154 108.105ZM56.322 105.568C56.3159 105.567 56.3096 105.567 56.3035 105.567C56.3012 105.567 56.2982 105.565 56.2957 105.565L56.322 105.568Z" stroke="black" stroke-width="21"/>
<mask id="path-2-inside-1_3078_4000" fill="white">
<path d="M109.84 158.89L122.4 130.84H124.67L119.56 143.21L128.67 143.23L127.54 145.5L118.53 145.51L112.44 158.9L109.84 158.89Z"/>
</mask>
<path d="M109.84 158.89L106.189 157.255L103.677 162.866L109.825 162.89L109.84 158.89ZM122.4 130.84V126.84H119.808L118.749 129.205L122.4 130.84ZM124.67 130.84L128.367 132.367L130.65 126.84H124.67V130.84ZM119.56 143.21L115.863 141.683L113.585 147.197L119.551 147.21L119.56 143.21ZM128.67 143.23L132.251 145.013L135.122 139.244L128.679 139.23L128.67 143.23ZM127.54 145.5L127.545 149.5L130.018 149.497L131.121 147.283L127.54 145.5ZM118.53 145.51L118.526 141.51L115.954 141.513L114.889 143.854L118.53 145.51ZM112.44 158.9L112.425 162.9L115.011 162.91L116.081 160.556L112.44 158.9ZM109.84 158.89L113.491 160.525L126.051 132.475L122.4 130.84L118.749 129.205L106.189 157.255L109.84 158.89ZM122.4 130.84V134.84H124.67V130.84V126.84H122.4V130.84ZM124.67 130.84L120.973 129.313L115.863 141.683L119.56 143.21L123.257 144.737L128.367 132.367L124.67 130.84ZM119.56 143.21L119.551 147.21L128.661 147.23L128.67 143.23L128.679 139.23L119.569 139.21L119.56 143.21ZM128.67 143.23L125.089 141.448L123.959 143.718L127.54 145.5L131.121 147.283L132.251 145.013L128.67 143.23ZM127.54 145.5L127.536 141.5L118.526 141.51L118.53 145.51L118.535 149.51L127.545 149.5L127.54 145.5ZM118.53 145.51L114.889 143.854L108.799 157.244L112.44 158.9L116.081 160.556L122.171 147.166L118.53 145.51ZM112.44 158.9L112.455 154.9L109.855 154.89L109.84 158.89L109.825 162.89L112.425 162.9L112.44 158.9Z" fill="black" mask="url(#path-2-inside-1_3078_4000)"/>
<path d="M141.644 152.514L141.122 153.95L140.96 155.468C140.549 159.335 140.845 163.478 142.65 167.343C143.707 169.608 145.13 171.448 146.739 172.9H134.302C134.072 172.803 133.925 172.721 133.839 172.664C133.814 172.593 133.774 172.466 133.74 172.261C133.641 171.677 133.651 170.927 133.748 170.199C133.768 170.045 133.79 169.909 133.81 169.795L156.427 111.908L141.644 152.514ZM225.751 109.36L207.383 160.781C205.22 165.754 202.229 168.579 199.475 170.264C201.228 168.651 202.639 166.989 203.747 165.458C205.133 163.54 206.101 161.763 206.743 160.407C207.066 159.724 207.314 159.131 207.498 158.661C207.59 158.425 207.666 158.218 207.728 158.043C207.759 157.956 207.787 157.877 207.811 157.806L207.844 157.707L224.368 109.36H225.751Z" stroke="black" stroke-width="25"/>
<path d="M278.969 105.41L303.948 152.815L313.948 171.795L320.483 151.361L335.142 105.52H344.051L321.11 176.85H304.979L278.8 128.354L268.928 110.067L262.344 129.779L246.507 177.19H237.436L261.478 105.41H278.969Z" stroke="black" stroke-width="18"/>
<path d="M362.722 183.776C362.71 183.82 362.685 183.911 362.659 184.017C362.647 184.064 362.619 184.176 362.589 184.319C362.574 184.393 362.54 184.58 362.521 184.693C362.493 184.883 362.44 185.466 362.43 185.86C362.43 185.001 362.567 184.236 362.783 183.564C362.762 183.634 362.741 183.707 362.722 183.776ZM387.358 104.14C386.957 105.431 386.523 106.826 386.063 108.309C383.474 116.647 380.023 127.769 376.572 138.902C373.12 150.033 369.667 161.178 367.078 169.563C365.971 173.147 365.021 176.23 364.295 178.593C361.743 178.641 358.544 178.682 355.323 178.713C353.916 178.727 352.509 178.737 351.155 178.747L375.062 104.14H387.358Z" stroke="black" stroke-width="15"/>
<path d="M491.395 107.19L491.047 108.44H457.651L455.246 116.173L436.962 174.959H430.207L446.721 122.524L451.227 108.22H415.458L415.783 107.19H491.395Z" stroke="black" stroke-width="22"/>
<path d="M76.8267 46.3486C76.8515 46.3358 76.876 46.3224 76.9009 46.3096C76.876 46.3223 76.8515 46.3358 76.8267 46.3486ZM78.2437 45.6328C78.3309 45.5895 78.418 45.546 78.5054 45.5029C78.418 45.546 78.3309 45.5895 78.2437 45.6328ZM173.676 45.5039C173.761 45.5455 173.845 45.5871 173.929 45.6289C173.845 45.5871 173.761 45.5455 173.676 45.5039ZM79.7583 44.8955C79.853 44.8503 79.9476 44.8047 80.0425 44.7598C79.9476 44.8047 79.853 44.8503 79.7583 44.8955ZM172.143 44.7627C172.228 44.803 172.313 44.8442 172.398 44.8848C172.313 44.8442 172.228 44.803 172.143 44.7627ZM81.2886 44.1807C81.3971 44.1309 81.505 44.0796 81.6138 44.0303C81.505 44.0796 81.3972 44.131 81.2886 44.1807ZM170.565 44.0303C170.674 44.0796 170.782 44.1309 170.89 44.1807C170.782 44.131 170.674 44.0796 170.565 44.0303ZM82.9585 43.4316C83.021 43.4043 83.0834 43.3768 83.146 43.3496C83.0834 43.3768 83.021 43.4043 82.9585 43.4316ZM87.8862 41.4189C88.1127 41.333 88.3406 41.2505 88.5679 41.166C88.3406 41.2505 88.1128 41.333 87.8862 41.4189ZM163.734 41.2119C163.913 41.2789 164.093 41.3442 164.272 41.4121C164.093 41.3443 163.913 41.2788 163.734 41.2119ZM89.4585 40.8379C89.7114 40.7464 89.9655 40.658 90.2192 40.5684C89.9655 40.658 89.7114 40.7464 89.4585 40.8379ZM161.911 40.5508C162.181 40.6461 162.451 40.7405 162.72 40.8379C162.451 40.7406 162.181 40.646 161.911 40.5508ZM160.241 39.9766C160.546 40.0787 160.852 40.1804 161.156 40.2852C160.852 40.1804 160.546 40.0786 160.241 39.9766ZM91.0435 40.2783C91.3259 40.1811 91.6096 40.0871 91.8931 39.9922C91.6096 40.0871 91.3259 40.1812 91.0435 40.2783ZM92.6392 39.7441C92.9619 39.6387 93.2858 39.5361 93.6099 39.4336C93.2858 39.536 92.9619 39.6388 92.6392 39.7441ZM158.618 39.4492C158.926 39.5468 159.234 39.6439 159.541 39.7441C159.234 39.644 158.926 39.5467 158.618 39.4492ZM94.187 39.252C94.5517 39.1389 94.9174 39.0282 95.2837 38.9189C94.9173 39.0281 94.5517 39.139 94.187 39.252ZM156.905 38.9219C157.26 39.028 157.615 39.1355 157.969 39.2451C157.615 39.1355 157.26 39.0279 156.905 38.9219ZM95.7769 38.7725C96.1497 38.6632 96.5235 38.5565 96.8979 38.4512C96.5235 38.5564 96.1497 38.6633 95.7769 38.7725ZM155.281 38.4512C155.655 38.5565 156.029 38.6632 156.402 38.7725C156.029 38.6633 155.655 38.5564 155.281 38.4512ZM97.4087 38.3086C97.7851 38.2047 98.1625 38.1038 98.5405 38.0039C98.1625 38.1037 97.7851 38.2048 97.4087 38.3086ZM153.638 38.0039C154.016 38.1038 154.394 38.2047 154.77 38.3086C154.394 38.2048 154.016 38.1037 153.638 38.0039ZM99.0171 37.8789C99.4134 37.7762 99.8105 37.6755 100.208 37.5771C99.8105 37.6754 99.4134 37.7763 99.0171 37.8789ZM151.995 37.583C152.383 37.679 152.77 37.7777 153.157 37.8779C152.77 37.7778 152.383 37.6789 151.995 37.583ZM100.586 37.4854C101.025 37.3788 101.464 37.274 101.904 37.1729C101.464 37.2739 101.025 37.3789 100.586 37.4854ZM150.269 37.1719C150.702 37.2714 151.135 37.3738 151.566 37.4785C151.135 37.3738 150.702 37.2713 150.269 37.1719ZM148.576 36.7969C149.068 36.9015 149.558 37.0098 150.047 37.1211C149.558 37.0099 149.068 36.9014 148.576 36.7969ZM102.148 37.1182C102.628 37.0091 103.108 36.9024 103.59 36.7998C103.108 36.9023 102.628 37.0092 102.148 37.1182ZM131.327 34.5635C137.196 34.8453 142.944 35.601 148.535 36.7881C143.121 35.6398 137.559 34.8986 131.881 34.5977L130.369 34.5176L131.327 34.5635ZM120.298 34.5977C114.631 34.898 109.078 35.6375 103.674 36.7822C109.256 35.5987 114.995 34.8447 120.854 34.5635L121.803 34.5176L120.298 34.5977Z" stroke="black" stroke-width="11"/>
<mask id="path-9-inside-2_3078_4000" fill="white">
<path d="M212.02 198.26C194.66 224.89 165.25 243 131.59 244.79V211.53H120.59V244.79C86.9298 243 57.5298 224.9 40.1598 198.26H27.2998C45.9698 231.16 80.5998 253.88 120.59 255.8V283.08H131.59V255.8C171.58 253.88 206.21 231.17 224.88 198.26H212.02Z"/>
</mask>
<path d="M212.02 198.26V187.26H206.06L202.805 192.253L212.02 198.26ZM131.59 244.79H120.59V256.391L132.174 255.774L131.59 244.79ZM131.59 211.53H142.59V200.53H131.59V211.53ZM120.59 211.53V200.53H109.59V211.53H120.59ZM120.59 244.79L120.006 255.774L131.59 256.391V244.79H120.59ZM40.1598 198.26L49.3741 192.252L46.1192 187.26H40.1598V198.26ZM27.2998 198.26V187.26H8.4098L17.7329 203.689L27.2998 198.26ZM120.59 255.8H131.59V245.315L121.117 244.813L120.59 255.8ZM120.59 283.08H109.59V294.08H120.59V283.08ZM131.59 283.08V294.08H142.59V283.08H131.59ZM131.59 255.8L131.062 244.813L120.59 245.315V255.8H131.59ZM224.88 198.26L234.447 203.688L243.767 187.26H224.88V198.26ZM212.02 198.26L202.805 192.253C187.283 216.064 161.016 232.21 131.006 233.806L131.59 244.79L132.174 255.774C169.484 253.79 202.037 233.716 221.235 204.267L212.02 198.26ZM131.59 244.79H142.59V211.53H131.59H120.59V244.79H131.59ZM131.59 211.53V200.53H120.59V211.53V222.53H131.59V211.53ZM120.59 211.53H109.59V244.79H120.59H131.59V211.53H120.59ZM120.59 244.79L121.174 233.806C91.1637 232.21 64.9064 216.074 49.3741 192.252L40.1598 198.26L30.9455 204.268C50.1532 233.726 82.6959 253.79 120.006 255.774L120.59 244.79ZM40.1598 198.26V187.26H27.2998V198.26V209.26H40.1598V198.26ZM27.2998 198.26L17.7329 203.689C38.1888 239.736 76.1557 264.679 120.062 266.787L120.59 255.8L121.117 244.813C85.0439 243.081 53.7508 222.584 36.8667 192.831L27.2998 198.26ZM120.59 255.8H109.59V283.08H120.59H131.59V255.8H120.59ZM120.59 283.08V294.08H131.59V283.08V272.08H120.59V283.08ZM131.59 283.08H142.59V255.8H131.59H120.59V283.08H131.59ZM131.59 255.8L132.117 266.787C176.022 264.679 213.991 239.747 234.447 203.688L224.88 198.26L215.312 192.832C198.429 222.593 167.137 243.081 131.062 244.813L131.59 255.8ZM224.88 198.26V187.26H212.02V198.26V209.26H224.88V198.26Z" fill="black" mask="url(#path-9-inside-2_3078_4000)"/>
</g>
<defs>
<clipPath id="clip0_3078_4000">
<rect width="505.88" height="283.08" fill="white"/>
</clipPath>
</defs>
</svg>
