<svg width="25" height="25" viewBox="0 0 25 25" fill="none" xmlns="http://www.w3.org/2000/svg">
<rect width="25" height="25" rx="12.5" fill="#E8ECDF"/>
<path d="M16.8611 19.9726C16.5694 20.0107 7.42179 20.0084 7.14525 19.9699C6.76504 19.9172 6.58527 19.8672 6.34153 19.7462C6.20637 19.6792 6.09057 19.6129 6.08467 19.5993C6.07843 19.5858 6.05285 19.5745 6.02726 19.5745C6.00167 19.5745 5.98067 19.5592 5.98067 19.5403C5.98067 19.5214 5.95804 19.4973 5.93048 19.4866C5.8488 19.4548 5.54109 19.1346 5.49746 19.0358C5.47548 18.9858 5.44202 18.9447 5.42365 18.9447C5.40528 18.9447 5.39019 18.9225 5.39019 18.895C5.39019 18.8675 5.37313 18.8452 5.3518 18.8452C5.33081 18.8452 5.32228 18.8366 5.33245 18.826C5.34295 18.8157 5.30785 18.7176 5.25405 18.6089C5.04606 18.1846 5.02671 18.002 5.00637 16.2555C4.98669 14.5878 5.00899 14.1181 5.12479 13.7416C5.15826 13.6332 5.17728 13.5367 5.16744 13.5268C5.1576 13.5168 5.16777 13.5086 5.18975 13.5086C5.21206 13.5086 5.22091 13.4936 5.20976 13.4754C5.19861 13.4572 5.20615 13.4423 5.22616 13.4423C5.24617 13.4423 5.25372 13.4273 5.24256 13.4091C5.23141 13.3909 5.23896 13.376 5.25897 13.376C5.27898 13.376 5.28652 13.361 5.27537 13.3428C5.26422 13.3246 5.27078 13.3097 5.2898 13.3097C5.30883 13.3097 5.32458 13.2888 5.32458 13.2636C5.32458 13.2381 5.34656 13.2086 5.37378 13.1983C5.40101 13.1877 5.42299 13.1655 5.42299 13.1489C5.42299 13.1111 5.68346 12.8456 5.72053 12.8456C5.73562 12.8456 5.75957 12.8261 5.774 12.8022C5.78844 12.7783 5.84814 12.7392 5.90686 12.7153C5.96558 12.6915 6.01348 12.6587 6.01348 12.6427C6.01348 12.6268 6.04104 12.6136 6.07515 12.6136C6.10894 12.6136 6.1529 12.5937 6.17291 12.5695C6.19817 12.5387 6.20933 11.9646 6.20933 10.6354C6.20998 8.67337 6.22212 8.46123 6.3576 8.07308C6.38352 7.99916 6.40484 7.93154 6.40517 7.92259C6.4055 7.91331 6.42781 7.86326 6.45438 7.81121C6.48095 7.75884 6.49374 7.7068 6.48226 7.69553C6.47111 7.68393 6.47734 7.67465 6.49604 7.67465C6.51507 7.67465 6.55017 7.62625 6.57412 7.56692C6.59839 7.50759 6.64432 7.43035 6.67647 7.39489C6.70894 7.35975 6.73519 7.31666 6.73519 7.29975C6.73519 7.28252 6.84935 7.15026 6.9891 7.00541C7.12885 6.86088 7.25515 6.721 7.26958 6.69482C7.28434 6.66863 7.31813 6.64709 7.3447 6.64709C7.3716 6.64709 7.40178 6.62488 7.41228 6.59736C7.42245 6.56985 7.45165 6.54764 7.47691 6.54764C7.50184 6.54764 7.52251 6.53273 7.52251 6.5145C7.52251 6.49627 7.54449 6.48135 7.57171 6.48135C7.59894 6.48135 7.62092 6.46809 7.62092 6.45185C7.62092 6.43561 7.65766 6.41273 7.70293 6.40146C7.7482 6.38986 7.78495 6.366 7.78495 6.3481C7.78495 6.3302 7.80856 6.31561 7.83743 6.31561C7.86597 6.31561 7.92896 6.29506 7.97685 6.26987C8.16253 6.17242 8.23634 6.14524 8.4417 6.09784C8.67921 6.04314 8.84389 6.01397 8.96592 6.00503C9.01119 6.00171 9.07024 5.98447 9.0978 5.96657C9.1598 5.92647 9.23591 5.75775 9.21032 5.71664C9.20015 5.69974 9.20835 5.68582 9.22836 5.68582C9.24837 5.68582 9.25592 5.6709 9.24476 5.65267C9.23361 5.63444 9.24116 5.61952 9.26117 5.61952C9.28118 5.61952 9.28938 5.60593 9.27921 5.58936C9.26904 5.57245 9.27199 5.55389 9.28577 5.54793C9.29955 5.54163 9.37566 5.43489 9.45537 5.31059C9.58692 5.10475 9.99009 4.65826 10.0442 4.65826C10.0567 4.65826 10.1151 4.61351 10.1745 4.55881C10.2338 4.50412 10.2939 4.45937 10.308 4.45937C10.3221 4.45937 10.369 4.42854 10.412 4.39076C10.4553 4.35297 10.5314 4.31386 10.5812 4.30358C10.6311 4.29364 10.6718 4.2754 10.6718 4.26314C10.6718 4.25121 10.7344 4.22403 10.8112 4.20348C10.888 4.18259 10.9949 4.14713 11.049 4.12425C11.1032 4.10138 11.1694 4.07917 11.1967 4.0752C11.6841 3.99929 11.8177 3.99001 12.1808 4.00758C12.4065 4.01818 12.6575 4.04437 12.7385 4.06525C12.8195 4.08613 12.912 4.10238 12.9435 4.10105C12.975 4.09973 13.0009 4.11431 13.0009 4.13354C13.0009 4.15243 13.0229 4.15939 13.0501 4.14911C13.0774 4.13851 13.0993 4.14282 13.0993 4.1584C13.0993 4.18359 13.2214 4.23132 13.3126 4.24159C13.3893 4.25021 13.493 4.3006 13.493 4.3291C13.493 4.34601 13.515 4.35993 13.5422 4.35993C13.5694 4.35993 13.5914 4.37584 13.5914 4.39507C13.5914 4.41429 13.6045 4.42192 13.6209 4.41164C13.637 4.4017 13.6593 4.41794 13.6708 4.44777C13.682 4.4776 13.7 4.49318 13.7105 4.48258C13.721 4.47197 13.7686 4.49981 13.8161 4.54423C13.8637 4.58865 13.9149 4.62511 13.9303 4.62511C13.9624 4.62511 14.1104 4.75471 14.2708 4.92343C14.4506 5.11204 14.4942 5.16706 14.5418 5.26319C14.5664 5.31324 14.5979 5.35435 14.6113 5.35435C14.6251 5.35435 14.653 5.40672 14.674 5.47036C14.695 5.534 14.7255 5.58638 14.7422 5.58638C14.7586 5.58638 14.7724 5.61621 14.7724 5.65267C14.7724 5.68913 14.7849 5.71896 14.7999 5.71896C14.815 5.71896 14.8452 5.77863 14.8669 5.85155C14.9013 5.96757 14.9184 5.98414 15.0037 5.98414C15.0575 5.98414 15.127 5.99707 15.1582 6.01265C15.2208 6.04414 15.7592 6.18137 15.8832 6.19761C15.9258 6.20324 15.9701 6.22247 15.9816 6.2407C16.0072 6.28048 16.2158 6.39119 16.2158 6.365C16.2158 6.35473 16.2476 6.37594 16.2863 6.41273C16.325 6.4492 16.3693 6.47107 16.3848 6.46179C16.4002 6.45218 16.4126 6.46014 16.4126 6.47936C16.4126 6.49859 16.4346 6.5145 16.4618 6.5145C16.4891 6.5145 16.5111 6.52941 16.5111 6.54764C16.5111 6.56588 16.5317 6.58079 16.5567 6.58079C16.5819 6.58079 16.6111 6.603 16.6213 6.63051C16.6318 6.65802 16.6574 6.68023 16.6787 6.68023C16.6997 6.68023 16.8296 6.79923 16.9667 6.94442C17.3276 7.3266 17.3253 7.32329 17.4529 7.57521C17.485 7.63885 17.5191 7.69885 17.5287 7.7078C17.5497 7.72835 17.6707 8.08833 17.7455 8.35417C17.7947 8.52819 17.8042 8.8043 17.8206 10.5641C17.8311 11.6702 17.8488 12.5841 17.8597 12.5953C17.8708 12.6066 17.9151 12.6225 17.9581 12.6308C18.0011 12.6391 18.0414 12.6613 18.0473 12.6799C18.0535 12.6984 18.0719 12.7051 18.0886 12.6948C18.105 12.6845 18.1185 12.6918 18.1185 12.711C18.1185 12.7303 18.1333 12.7462 18.1516 12.7462C18.2041 12.7462 18.4967 13.0166 18.6647 13.2208C18.7464 13.3199 18.9035 13.7379 18.954 13.9905C19.0003 14.2222 19.0059 14.496 18.9957 16.0788C18.9845 17.8008 18.9803 17.9135 18.9163 18.1376C18.8369 18.4147 18.6529 18.834 18.5699 18.9261C18.5381 18.9613 18.5122 19.0027 18.5122 19.0176C18.5122 19.0813 18.1821 19.3928 17.9545 19.544C17.8193 19.6338 17.6937 19.7193 17.6756 19.7336C17.6038 19.7906 17.0828 19.9434 16.8611 19.9726ZM16.9762 18.8638C17.527 18.7647 17.9158 18.417 18.0726 17.8833C18.1096 17.7564 18.1195 17.3801 18.1221 15.9734C18.1254 14.2762 18.1231 14.2143 18.0558 14.0008C17.9486 13.6594 17.6625 13.3717 17.3568 13.2974C17.2485 13.2712 16.9142 13.3601 16.8037 13.4442C16.7285 13.5016 16.7351 13.5016 16.9211 13.4413C16.9303 13.4379 16.9398 13.435 16.949 13.432C16.8624 13.4625 16.7889 13.4976 16.7577 13.5291C16.7181 13.5692 16.7079 13.672 16.7072 14.0329C16.7069 14.4738 16.7043 14.491 16.6111 14.6508L16.5153 14.8152L16.6419 14.9538C16.6925 15.0095 16.745 15.0883 16.7771 15.154C16.7646 15.1294 16.7492 15.1059 16.7292 15.0764C16.6777 14.9998 16.5967 14.9113 16.5488 14.8802C16.4782 14.8338 16.4851 14.8494 16.5862 14.963C16.6547 15.04 16.7249 15.1407 16.742 15.1865C16.7594 15.2322 16.7735 15.5266 16.7735 15.8405C16.7735 16.3668 16.7676 16.4232 16.6997 16.5594C16.6072 16.7444 16.4431 16.8319 16.1535 16.8511C15.8756 16.8693 15.6129 16.8077 15.5056 16.6993C15.3511 16.5432 15.3301 16.4391 15.3301 15.8289C15.3301 15.2279 15.3547 15.1003 15.5016 14.9422C15.5597 14.8799 15.5643 14.8596 15.5282 14.8258C15.4934 14.793 15.4892 14.793 15.5072 14.8258C15.5092 14.8291 15.5105 14.8334 15.5108 14.8381C15.5046 14.8321 15.4918 14.8275 15.4724 14.8212C15.4393 14.8102 15.3753 14.7466 15.3301 14.6796C15.2543 14.5673 15.2468 14.5212 15.2317 14.0747L15.2153 13.5914L11.9709 13.5831L8.72612 13.5745L8.74646 14.0263C8.76745 14.4977 8.74449 14.6319 8.62639 14.7307C8.547 14.7973 8.55947 14.86 8.67593 14.9773C8.81469 15.1175 8.83306 15.2206 8.83405 15.8637C8.8347 16.3884 8.83109 16.4199 8.74974 16.5846C8.70316 16.6794 8.65231 16.757 8.63722 16.757C8.62213 16.757 8.58407 16.7828 8.55258 16.8147C8.44236 16.9264 7.73344 16.877 7.56187 16.7457C7.53858 16.7278 7.49036 16.6492 7.45526 16.571C7.39949 16.4474 7.39129 16.3536 7.39129 15.8355C7.39129 15.3191 7.40802 15.1314 7.4815 15.0095L7.65799 14.852L7.5868 14.7933C7.54744 14.7612 7.4979 14.735 7.47658 14.735C7.45558 14.735 7.40933 14.6866 7.3739 14.6273C7.31879 14.5358 7.30763 14.445 7.29812 14.0223C7.29189 13.7489 7.27319 13.5082 7.25646 13.4877C7.23973 13.4671 7.11343 13.4101 6.97598 13.3607C6.7283 13.2719 6.72469 13.2715 6.57674 13.3286C6.39894 13.3972 6.16996 13.602 6.06269 13.7883C5.89604 14.0777 5.87898 14.3061 5.88915 16.1106L5.89866 17.768L5.98527 18.0079C6.15913 18.4879 6.51605 18.7849 7.03043 18.8774C7.11179 18.892 9.32612 18.9049 11.9512 18.9066C15.8569 18.9089 16.7702 18.9009 16.9762 18.8638ZM7.93093 14.5931C7.95258 14.6505 8.03033 14.6468 8.08019 14.5858C8.11135 14.5477 8.11693 14.3684 8.10315 13.8344L8.08511 13.133L8.20091 13.0399C8.26455 12.9885 8.3633 12.9384 8.42005 12.9281C8.54602 12.9053 15.5574 12.9218 15.6227 12.945C15.6486 12.9543 15.7126 13.0097 15.7651 13.0687L15.8602 13.1754L15.8507 13.8745C15.8405 14.6114 15.8533 14.6786 15.9868 14.5945C16.0318 14.5659 16.0462 14.4834 16.0639 14.1539C16.0754 13.9308 16.0997 13.6329 16.1174 13.4916C16.1351 13.3504 16.1404 13.1774 16.1292 13.1068C16.1161 13.0229 16.124 12.9606 16.1518 12.9268C16.2053 12.8612 16.4386 12.7462 16.5173 12.7462C16.5498 12.7462 16.5767 12.7312 16.5767 12.713C16.5767 12.6948 16.6062 12.6799 16.6423 12.6799C16.6784 12.6799 16.7079 12.6686 16.7082 12.655C16.7082 12.6414 16.7525 12.6046 16.8066 12.5738L16.9047 12.5171L16.9044 10.5684V10.4753C16.9041 8.84375 16.9041 8.52686 16.7991 8.25075C16.7715 8.17915 16.7374 8.1102 16.6941 8.02137C16.6154 7.8606 16.5025 7.70912 16.3303 7.53245C16.1928 7.3919 16.0665 7.27688 16.0498 7.27688C16.0328 7.27688 16.019 7.26263 16.019 7.24539C16.019 7.14197 15.1536 6.80553 15.0204 6.85724C14.98 6.87282 14.9709 7.04717 14.9627 7.96469C14.9538 8.94783 14.9472 9.06219 14.8938 9.14439C14.8072 9.27798 14.6461 9.36482 14.4853 9.36515C14.3715 9.36515 14.3223 9.34361 14.2163 9.24682L14.0868 9.12848L14.0848 7.99551C14.0828 6.97491 14.0773 6.85856 14.0277 6.82111C13.9585 6.76907 10.2342 6.76045 10.1 6.81216L10.0157 6.84431V7.93121C10.0157 8.83248 10.0114 9.00087 9.96942 9.1023C10.0114 9.00054 10.0157 8.83049 10.015 7.90734C10.0147 7.17777 10.0039 6.81348 9.98287 6.84597C9.96418 6.87547 9.95073 7.32627 9.95073 7.94944C9.95007 8.93325 9.9458 9.01181 9.88512 9.13147C9.76636 9.36714 9.39993 9.40327 9.2218 9.1971L9.12995 9.09103V7.98921C9.12995 7.93253 9.12995 7.8785 9.12995 7.82713C9.13027 7.07933 9.1306 6.86983 9.04465 6.82376C9.01119 6.80553 8.96494 6.81249 8.90031 6.82177C8.88916 6.82343 8.87702 6.82509 8.86456 6.82674C8.2511 6.90895 7.59008 7.4098 7.285 8.02402C7.08554 8.4251 7.0839 8.44366 7.07144 10.5435C7.07045 10.7249 7.06914 10.8899 7.06783 11.0407C7.05897 12.2367 7.057 12.5141 7.19118 12.6288C7.24858 12.6779 7.33093 12.6971 7.44869 12.7455C7.71015 12.8536 7.83382 12.9543 7.80332 13.0352C7.79347 13.0604 7.80036 13.072 7.81808 13.0607C7.82792 13.0548 7.83645 13.0432 7.84235 13.0296C7.84203 13.0392 7.84137 13.0495 7.84039 13.0601C7.82628 13.2039 7.90403 14.5229 7.93093 14.5931ZM13.9362 5.95066C13.9454 5.93508 13.66 5.92547 13.0701 5.92116L13.9559 5.91685L13.8886 5.82106C13.8516 5.76835 13.821 5.71233 13.821 5.69676C13.821 5.65665 13.554 5.40307 13.4848 5.37755C13.4533 5.36595 13.4274 5.34109 13.4274 5.32219C13.4274 5.3033 13.4077 5.28805 13.3838 5.28805C13.3601 5.28805 13.307 5.25192 13.266 5.20783C13.225 5.16375 13.1446 5.11005 13.0879 5.08851C13.0311 5.06696 12.955 5.0368 12.9189 5.02122C12.3776 4.78919 11.5821 4.8051 11.0474 5.05834C10.9221 5.11801 10.8145 5.179 10.8086 5.19425C10.8023 5.20949 10.7768 5.22176 10.7512 5.22176C10.7256 5.22176 10.7046 5.23667 10.7046 5.2549C10.7046 5.27314 10.6895 5.28805 10.6714 5.28805C10.6213 5.28805 10.2699 5.65201 10.1856 5.79123L10.1118 5.91288L10.1866 5.92381C10.2033 5.92613 10.3559 5.92779 10.599 5.92846C10.2794 5.93409 10.1033 5.94205 10.097 5.95199C10.0846 5.97254 10.7646 5.98414 11.9964 5.98414C13.2581 5.98414 13.9227 5.97254 13.9362 5.95066ZM6.85525 18.7799C6.93267 18.8055 7.01272 18.8204 7.43984 18.8287H6.91562L6.76012 18.7541C6.6745 18.713 6.59741 18.6795 6.58822 18.6795C6.54492 18.6795 6.1775 18.3404 6.1775 18.3003C6.1775 18.2867 6.14962 18.2357 6.1155 18.1873C6.08139 18.1389 6.05153 18.0845 6.04891 18.0663C6.04628 18.0481 6.02627 17.9735 6.00429 17.9006C6.00069 17.8883 5.99741 17.8697 5.99413 17.8435C6.00429 17.9035 6.01742 17.9423 6.0348 17.9891C6.18538 18.3915 6.45307 18.6497 6.85525 18.7799ZM17.9623 13.8675C17.9404 13.8248 17.9141 13.7827 17.8836 13.7336C17.7727 13.5576 17.5428 13.3879 17.3702 13.3554C17.2938 13.3408 17.1255 13.3736 16.9821 13.4207C17.0691 13.3905 17.1481 13.3594 17.1727 13.3448C17.2029 13.3269 17.2544 13.3186 17.2875 13.3259C17.6126 13.3982 17.8108 13.5569 17.961 13.8649L17.9623 13.8675ZM7.1833 8.53681C7.2125 8.34058 7.25777 8.22721 7.3283 8.07937C7.38702 7.95706 7.43229 7.84569 7.42934 7.8321C7.42639 7.81851 7.43885 7.80724 7.4569 7.80724C7.47494 7.80724 7.4897 7.79 7.4897 7.76912C7.4897 7.74824 7.59861 7.62526 7.73213 7.49565C8.01589 7.2202 8.06641 7.17744 8.10939 7.17744C8.11496 7.17744 8.12218 7.17512 8.13104 7.17114C7.81152 7.37599 7.53202 7.67332 7.36275 8.01076C7.2722 8.19208 7.21676 8.31439 7.1833 8.53681ZM6.64333 13.37C6.6266 13.3756 6.60823 13.3829 6.58691 13.3909C6.28051 13.5092 6.08664 13.7591 5.99642 14.1523C5.99216 14.1705 5.98855 14.1894 5.98494 14.2096C5.99609 14.1002 6.01315 14.0515 6.0394 13.9782C6.11714 13.7601 6.13453 13.732 6.28314 13.5821C6.42453 13.4389 6.44749 13.4247 6.60889 13.3793C6.62103 13.3756 6.63251 13.3726 6.64333 13.37ZM18.0713 14.4377C18.0575 14.1476 18.0306 14.0137 17.9781 13.8997L18.0693 14.087L18.0713 14.4377ZM17.0851 18.8287L17.3 18.7259C17.4466 18.6556 17.57 18.5734 17.673 18.476C17.5503 18.595 17.4043 18.6984 17.2738 18.7518L17.0851 18.8287ZM7.48609 15.0022C7.49823 14.9829 7.51168 14.9654 7.5271 14.9485C7.60813 14.8576 7.60616 14.8517 7.47527 14.7738C7.37062 14.7115 7.31255 14.6511 7.28041 14.5262C7.31583 14.6598 7.38144 14.7207 7.50085 14.7801L7.62519 14.8421L7.54941 14.9292L7.48609 15.0022ZM16.4248 16.8634C16.577 16.8054 16.7164 16.6768 16.783 16.5326C16.7495 16.6304 16.6967 16.6943 16.6144 16.7643C16.5658 16.8057 16.5002 16.8388 16.4248 16.8634ZM9.11158 9.08175C9.1165 9.096 9.12207 9.10926 9.12831 9.12285C9.16734 9.21036 9.23361 9.27897 9.31267 9.32471C9.20015 9.26671 9.14241 9.23422 9.11158 9.08175ZM7.4172 12.6809C7.41327 12.6802 7.40933 12.6799 7.40539 12.6799C7.37915 12.6799 7.30632 12.6464 7.24366 12.6053L7.1295 12.5307V12.5098L7.20856 12.5728C7.24268 12.5997 7.32765 12.6431 7.4172 12.6809ZM15.3599 16.5657C15.4351 16.7036 15.5571 16.8044 15.7126 16.8624C15.6703 16.8488 15.6302 16.8326 15.5938 16.8137C15.4843 16.757 15.4265 16.6966 15.3642 16.574C15.3626 16.5714 15.3612 16.5684 15.3599 16.5657ZM7.17215 13.486C7.12622 13.4628 7.04946 13.432 6.96679 13.4051C6.89167 13.3806 6.84115 13.3644 6.80145 13.3561C6.83885 13.3607 6.88084 13.3713 6.93694 13.3876C7.057 13.423 7.12885 13.4423 7.17215 13.486ZM15.5069 14.8663C15.4997 14.8895 15.4829 14.9173 15.4603 14.9418C15.3799 15.0277 15.3353 15.089 15.3094 15.1987C15.3347 15.0744 15.3816 15.0078 15.4679 14.912C15.4862 14.8918 15.4993 14.8772 15.5069 14.8663ZM7.82136 12.9152C7.77445 12.8456 7.67997 12.775 7.59861 12.7594C7.53825 12.7482 7.48084 12.7253 7.471 12.7094C7.46871 12.7054 7.4651 12.7017 7.46116 12.6984C7.47264 12.7031 7.48445 12.7074 7.49561 12.7117C7.68555 12.7806 7.78232 12.8363 7.82136 12.9152ZM8.16515 7.1496C8.17467 7.1423 8.18385 7.13435 8.19205 7.12573C8.22617 7.09159 8.33836 7.04121 8.46893 6.99579C8.36559 7.03723 8.26357 7.08894 8.16515 7.1496ZM16.8348 16.1305C16.8368 16.0304 16.8365 15.9121 16.8339 15.7785C16.826 15.3781 16.823 15.2614 16.7876 15.1762C16.7945 15.1924 16.8001 15.2073 16.8037 15.2206C16.823 15.2909 16.8384 15.5869 16.8381 15.8786C16.8381 15.9737 16.8371 16.0569 16.8348 16.1305ZM17.7619 18.3822C17.877 18.2466 17.9614 18.0852 18.0207 17.8903C18.028 17.8664 18.0345 17.8439 18.0404 17.82C18.0122 17.9745 17.9673 18.0597 17.8954 18.1936C17.8626 18.2552 17.8164 18.3195 17.7619 18.3822ZM9.06106 6.87017L9.06434 6.86983L9.06467 7.27456L9.06106 6.87017ZM7.23874 13.8821C7.23645 13.7893 7.23317 13.7058 7.22923 13.6415C7.23579 13.7008 7.23776 13.7787 7.23874 13.8821ZM9.42486 9.37245C9.49244 9.39167 9.56396 9.39664 9.63252 9.38504C9.56592 9.39731 9.49572 9.39366 9.42486 9.37245ZM9.87724 9.2445C9.90709 9.20969 9.93596 9.16859 9.95499 9.13246C9.93235 9.17489 9.90644 9.21235 9.87724 9.2445Z" fill="#676B5D"/>
</svg>
